<?xml version="1.0" encoding="utf-8"?>
<!-- Generator: Adobe Illustrator 16.0.0, SVG Export Plug-In . SVG Version: 6.00 Build 0)  -->
<!DOCTYPE svg PUBLIC "-//W3C//DTD SVG 1.1//EN" "http://www.w3.org/Graphics/SVG/1.1/DTD/svg11.dtd">
<svg version="1.1" id="Layer_1" xmlns="http://www.w3.org/2000/svg" xmlns:xlink="http://www.w3.org/1999/xlink" x="0px" y="0px"
	 width="456.419px" height="456.42px" viewBox="3846.688 -2611.505 456.419 456.42"
	 enable-background="new 3846.688 -2611.505 456.419 456.42" xml:space="preserve">
<g>
	<g>
		<path d="M4206.216-2321.541c1.104-2.882-0.245-6.07-3.127-7.234c-2.881-1.104-6.068,0.245-7.233,3.127
			c-4.23,10.728-14.774,17.961-26.299,17.961h-116.292c-1.41,0-2.819,0.552-3.862,1.533l-53.088,50.82v-46.836
			c0-1.471-0.613-2.881-1.655-3.924c-1.042-1.042-2.452-1.654-3.923-1.654h-26.483c-15.571,0-28.261-12.69-28.261-28.262v-125.241
			c0-15.571,12.689-28.261,28.261-28.261h125.978c3.065,0,5.578-2.514,5.578-5.579c0-3.064-2.513-5.578-5.578-5.578h-125.978
			c-21.701,0-39.356,17.655-39.356,39.356v125.303c0,21.701,17.655,39.357,39.356,39.357h20.966v54.314
			c0,2.207,1.349,4.229,3.371,5.088c0.675,0.307,1.472,0.429,2.207,0.429c1.41,0,2.82-0.552,3.862-1.532l60.874-58.299h114.085
			C4185.618-2296.591,4200.33-2306.644,4206.216-2321.541z"/>
		<path d="M4224.545-2435.933c1.655-10.359-2.636-20.904-10.912-26.851c-4.72-3.371-10.237-5.149-16-5.149h-40.644v-29.058
			c0-12.873-3.801-22.191-11.279-27.647c-11.832-8.705-28.016-3.739-28.69-3.556c-2.329,0.735-3.861,2.882-3.861,5.272v33.532
			c0,25.809-30.1,34.637-31.326,35.004c-0.123,0.062-0.245,0.123-0.368,0.123c-1.839-2.82-5.026-4.721-8.705-4.721h-31.142
			c-5.701,0-10.36,4.659-10.36,10.36v90.545c0,5.701,4.659,10.359,10.36,10.359h31.142c2.882,0,5.456-1.164,7.356-3.064
			c4.966,4.965,11.832,8.031,19.434,8.031h82.023c18.574,0,30.406-9.748,32.552-26.729L4224.545-2435.933z M4072.023-2358.814
			h-29.609v-89.012h29.609V-2358.814z M4213.572-2437.649l-10.483,66.575c0,0.061,0,0.123,0,0.184
			c-1.409,11.342-8.644,17.104-21.517,17.104h-82.023c-9.073,0-16.43-7.356-16.43-16.43v-73.257c0.552,0,1.104,0,1.655-0.184
			c1.594-0.43,39.479-11.402,39.479-45.732v-28.996c4.046-0.552,10.299-0.674,14.958,2.697c4.475,3.311,6.682,9.563,6.682,18.697
			v34.637c0,3.064,2.514,5.578,5.579,5.578h46.222c3.434,0,6.743,1.042,9.502,3.065
			C4212.039-2450.216,4214.553-2443.902,4213.572-2437.649z"/>
	</g>
</g>
</svg>
