<?xml version="1.0" encoding="utf-8"?>
<!-- Generator: Adobe Illustrator 16.0.0, SVG Export Plug-In . SVG Version: 6.00 Build 0)  -->
<!DOCTYPE svg PUBLIC "-//W3C//DTD SVG 1.1//EN" "http://www.w3.org/Graphics/SVG/1.1/DTD/svg11.dtd">
<svg version="1.1" id="Layer_1" xmlns="http://www.w3.org/2000/svg" xmlns:xlink="http://www.w3.org/1999/xlink" x="0px" y="0px"
	 width="456.419px" height="456.42px" viewBox="3210.968 -2611.505 456.419 456.42"
	 enable-background="new 3210.968 -2611.505 456.419 456.42" xml:space="preserve">
<g>
	<g>
		<g>
			<g>
				
					<rect x="3496.67" y="-2528.072" transform="matrix(-0.1781 -0.984 0.984 -0.1781 6626.4663 488.3948)" width="41.045" height="9.95"/>
			</g>
		</g>
		<g>
			<g>
				
					<rect x="3553.938" y="-2534.272" transform="matrix(-0.7736 -0.6337 0.6337 -0.7736 7904.4326 -2201.7329)" width="9.95" height="42.818"/>
			</g>
		</g>
		<g>
			<g>
				
					<rect x="3574.174" y="-2499.757" transform="matrix(-0.1833 -0.9831 0.9831 -0.1833 6672.5029 584.7739)" width="9.956" height="41.1"/>
			</g>
		</g>
	</g>
	<g>
		<path d="M3539.804-2484.221c-3.954-3.981-9.571-5.836-15.117-4.992c-21.784,3.751-43.318,8.821-64.481,15.188
			c-32.378,9.309-63.584,34.941-90.489,74.142l-34.333-0.129c-1.323,0-2.596,0.523-3.533,1.46l-49.309,49.287
			c-1.305,1.307-1.784,3.224-1.246,4.988c0.535,1.764,2.003,3.092,3.811,3.446l36.05,7.108c0.32,0.059,0.644,0.09,0.972,0.09
			c2.572,0.004,4.727-1.952,4.977-4.513c0.25-2.564-1.49-4.895-4.02-5.387l-26.859-5.296l41.168-41.169l25.699,0.102
			c-10.715,16.831-19.875,34.603-27.373,53.089c-0.699,1.842-0.258,3.919,1.135,5.313l49.162,49.161l10.422,52.831
			c0.355,1.807,1.682,3.274,3.446,3.809c1.765,0.539,3.681,0.059,4.984-1.244l49.251-49.291c0.945-0.94,1.472-2.221,1.464-3.552
			l-0.043-16.257c-0.012-2.752-2.244-4.977-4.996-4.977c-2.751,0-4.988,2.225-4.996,4.977l0.055,14.195l-41.167,41.168
			l-8.131-41.047c19.441-8.267,38.08-18.31,55.672-30.004c41.168-27.436,68.025-59.556,77.612-92.874
			c6.417-21.155,11.487-42.693,15.191-64.485C3545.643-2474.635,3543.793-2480.263,3539.804-2484.221z M3519.99-2407.362
			c-19.645,68.284-110.535,109.292-128.193,116.685l-19.236-19.232l55.536-55.539c1.952-1.951,1.952-5.113,0-7.064
			c-1.952-1.952-5.117-1.952-7.069,0l-55.531,55.535l-19.23-19.23c7.373-17.663,48.329-108.515,116.684-128.199
			c20.737-6.296,41.85-11.28,63.213-14.922c0.577-0.086,1.167-0.105,1.748-0.059l-42.096,42.093
			c-15.563-11.847-37.64-9.606-50.505,5.125c-12.868,14.727-12.119,36.909,1.71,50.738s36.008,14.574,50.738,1.709
			c14.727-12.864,16.967-34.945,5.125-50.508l42.088-42.097c0.047,0.586,0.027,1.175-0.058,1.753
			C3531.271-2449.213,3526.287-2428.101,3519.99-2407.362z M3482.547-2426.948c9.192,9.172,10.625,23.56,3.419,34.364
			c-7.205,10.804-21.042,15.012-33.04,10.051c-12.003-4.961-18.826-17.713-16.297-30.449c2.529-12.74,13.705-21.913,26.69-21.917
			c7.21-0.004,14.122,2.85,19.228,7.936V-2426.948z"/>
		<path d="M3347.221-2291.643c-1.951-1.951-5.113-1.951-7.064,0l-48.01,48.018c-1.951,1.952-1.951,5.113,0,7.065
			c1.947,1.952,5.113,1.952,7.064,0l48.01-48.022C3349.169-2286.533,3349.169-2289.691,3347.221-2291.643z"/>
		<path d="M3366.608-2279.117l-48.021,48.018c-1.358,1.238-1.925,3.123-1.479,4.906c0.449,1.785,1.839,3.178,3.623,3.627
			c1.779,0.453,3.664-0.109,4.91-1.468l48.029-48.021c1.951-1.952,1.951-5.113,0-7.065c-1.952-1.951-5.113-1.951-7.065,0
			L3366.608-2279.117z"/>
		<path d="M3334.699-2318.091c-1.951-1.952-5.113-1.952-7.064,0l-48.021,48.034c-1.3,1.252-1.819,3.11-1.362,4.859
			c0.456,1.744,1.819,3.11,3.567,3.566c1.744,0.457,3.603-0.063,4.859-1.361l48.021-48.033
			C3336.651-2312.978,3336.651-2316.143,3334.699-2318.091z"/>
	</g>
</g>
</svg>
