<?xml version="1.0" encoding="utf-8"?>
<!-- Generator: Adobe Illustrator 16.0.0, SVG Export Plug-In . SVG Version: 6.00 Build 0)  -->
<!DOCTYPE svg PUBLIC "-//W3C//DTD SVG 1.1//EN" "http://www.w3.org/Graphics/SVG/1.1/DTD/svg11.dtd">
<svg version="1.1" id="Layer_1" xmlns="http://www.w3.org/2000/svg" xmlns:xlink="http://www.w3.org/1999/xlink" x="0px" y="0px"
	 width="456.42px" height="456.42px" viewBox="2639.107 -2611.505 456.42 456.42"
	 enable-background="new 2639.107 -2611.505 456.42 456.42" xml:space="preserve">
<g>
	<g>
		<path fill="#282828" d="M2780.156-2496.853c1.49,0.591,2.842,1.842,3.938,3.377l0.783-2.05l7.137,2.731
			c4.035,1.546,8.563-0.473,10.107-4.508c0.742-1.94,0.686-4.094-0.16-5.99l-3.127-6.985l9.525-4.253l3.115,6.978
			c1.764,3.946,6.389,5.718,10.334,3.956c1.895-0.844,3.379-2.408,4.119-4.347l2.732-7.137l9.742,3.729l-2.732,7.136
			c-1.545,4.037,0.475,8.561,4.512,10.105c1.938,0.742,4.094,0.684,5.986-0.163l6.977-3.114l4.252,9.528l-6.975,3.114
			c-3.947,1.762-5.721,6.389-3.957,10.336c0.227,0.512,0.518,0.985,0.842,1.429c2.637-0.158,5.277-0.254,7.92-0.314
			c0.67-0.056,1.342-0.081,2.01-0.127l-4.557-1.743c-1.348-0.515-2.021-2.021-1.51-3.368c0.25-0.646,0.744-1.168,1.375-1.45
			l9.359-4.178c1.316-0.588,1.906-2.13,1.32-3.444l-6.381-14.293c-0.586-1.314-2.129-1.904-3.445-1.317l-9.355,4.179
			c-1.313,0.594-2.859,0.013-3.455-1.3c-0.287-0.637-0.309-1.363-0.055-2.015l3.664-9.574c0.514-1.345-0.154-2.853-1.502-3.368
			c0,0,0,0-0.004-0.001l-14.607-5.591c-1.344-0.516-2.85,0.156-3.367,1.501l-3.664,9.573c-0.516,1.344-2.021,2.019-3.369,1.504
			c-0.646-0.247-1.17-0.741-1.447-1.373l-4.178-9.359c-0.588-1.315-2.131-1.905-3.445-1.318l-8.949,3.995
			c-6.557,3.584-4.52,2.432-6.715,3.84c-0.246,0.646-0.229,1.363,0.055,1.994l4.176,9.357c0.447,0.962,0.252,2.099-0.486,2.857
			c-0.725,0.769-1.84,1.024-2.822,0.646l-9.572-3.663c-1.346-0.518-2.855,0.154-3.371,1.499c0,0.002,0,0.003,0,0.003l-1.055,2.755
			C2779.967-2496.999,2780.064-2496.943,2780.156-2496.853z"/>
		<g>
			<g>
				<path fill="#282828" d="M2799.617-2478.354c1.6,0.734,3.002,1.716,4.318,2.8c-0.107-1.503-0.002-3.044,0.35-4.589
					c1.916-8.429,10.301-13.707,18.73-11.79c8.428,1.917,13.707,10.304,11.789,18.731c-0.148,0.653-0.35,1.28-0.574,1.895
					c0.85-0.19,1.701-0.367,2.563-0.519c1.045-0.184,2.092-0.313,3.137-0.452c2.395-11.155-4.605-22.192-15.758-24.742
					c-11.236-2.556-22.418,4.482-24.975,15.72c-0.199,0.87-0.318,1.738-0.404,2.603
					C2799.068-2478.589,2799.344-2478.479,2799.617-2478.354z"/>
			</g>
		</g>
	</g>
	<path d="M3052.414-2406.723c-24.941-17.612-50.924-33.691-77.811-48.144c-40.715-22.53-96.229-27.974-160.789-15.966
		l-33.408-33.657c-1.293-1.293-3.045-2.025-4.875-2.025l-96.297-0.021c-2.549,0.001-4.891,1.404-6.088,3.653
		c-1.199,2.246-1.063,4.977,0.357,7.088l28.266,42.151c0.256,0.369,0.541,0.716,0.859,1.037c2.51,2.516,6.523,2.709,9.27,0.452
		c2.75-2.261,3.324-6.235,1.336-9.187l-21.061-31.404l80.414-0.001l25,25.199c-26.902,5.973-53.205,14.383-78.584,25.115
		c-2.48,1.115-4.078,3.576-4.08,6.296l0.002,96.029l-41.42,61.777c-1.416,2.111-1.555,4.84-0.354,7.086
		c1.197,2.249,3.537,3.651,6.082,3.652l96.242-0.039c0.684,0.002,1.344-0.13,1.984-0.321c-2.973-2.525-5.291-7.865-6.221-9.948
		c-0.58-1.295-0.762-2.469-0.65-3.531l-78.361,0.002l32.146-48.031c12.109,4.884,24.418,9.232,36.873,13.098
		c-0.361-0.827-0.57-1.701-0.615-2.607c-0.297-0.521-0.494-1.123-0.57-1.764c-0.262-2.231,0-4.396,0.84-6.355
		c-0.16-1.205-0.199-2.434-0.025-3.713c0.012-0.079,0.037-0.141,0.053-0.216c-15.15-4.826-26.512-9.258-32.207-11.592l-0.006-37.571
		l108.484-0.003c3.811,0.001,6.9-3.087,6.9-6.899c-0.002-3.813-3.092-6.904-6.904-6.905l-108.475,0.004v-37.563
		c24.451-10.05,153.182-58.781,239.168-11.246c26.4,14.104,51.889,29.856,76.313,47.164c0.646,0.479,1.242,1.036,1.764,1.649
		l-82.225-0.003c-3.629-26.769-27.381-46.144-54.332-44.32c-26.951,1.815-47.885,24.211-47.885,51.224s20.934,49.403,47.887,51.225
		c26.945,1.817,50.701-17.56,54.334-44.324l82.221-0.008c-0.527,0.617-1.121,1.174-1.77,1.654
		c-24.42,17.308-49.908,33.06-76.313,47.163c-24.691,13.658-52.926,19.348-81.211,20.302c0,0.001,0,0.002,0,0.003v9.439
		c0,1.23-0.545,2.084-1.311,2.625c0.039,0.271,0.045,0.546,0.029,0.82c-0.002,0.043-0.006,0.084-0.01,0.125
		c-0.023,0.271-0.07,0.539-0.15,0.798c34.373-1.005,64.596-8.36,89.328-22.038c26.93-14.395,52.916-30.479,77.818-48.144
		c6.262-4.578,9.953-11.882,9.922-19.644C3062.328-2394.833,3058.654-2402.129,3052.414-2406.723z M2950.443-2387.067
		c0.021,17.937-12.631,33.387-30.221,36.901c-17.59,3.516-35.213-5.889-42.088-22.453c-6.875-16.567-1.088-35.687,13.824-45.654
		c14.912-9.973,34.785-8.018,47.473,4.661c7.045,7.038,11.01,16.575,11.029,26.53L2950.443-2387.067z"/>
	<g>
		<path fill="#282828" d="M2772.438-2354.643c-0.143,1.008,0.121,2.032,0.734,2.847l9.053,12.073
			c0.955,1.234,1.047,2.931,0.229,4.263c-0.783,1.34-2.303,2.07-3.84,1.848l-14.941-2.136c-2.102-0.301-4.047,1.157-4.348,3.257
			c0,0.002,0,0.003,0,0.004l-3.262,22.813c-0.303,2.1,1.158,4.046,3.256,4.348c0.002,0,0.004,0,0.006,0l14.941,2.136
			c2.1,0.299,3.559,2.244,3.26,4.345c-0.143,1.009-0.682,1.92-1.498,2.531l-12.072,9.054c-1.695,1.272-2.041,3.68-0.768,5.378
			l13.828,18.438c1.273,1.697,3.68,2.042,5.379,0.769l12.074-9.054c1.699-1.271,4.107-0.924,5.379,0.775
			c0.607,0.813,0.869,1.834,0.727,2.839l-2.133,14.941c-0.301,2.101,1.156,4.049,3.258,4.35l0,0l22.816,3.26
			c0.178,0.023,0.361,0.035,0.543,0.035c1.91,0.004,3.533-1.401,3.807-3.295l2.131-14.943c0.299-2.1,2.244-3.56,4.346-3.261
			c1.008,0.143,1.918,0.683,2.529,1.498l9.057,12.072c1.273,1.698,3.682,2.042,5.379,0.77l18.438-13.828
			c1.697-1.274,2.041-3.682,0.77-5.379l-9.055-12.072c-0.949-1.237-1.041-2.932-0.229-4.264c0.768-1.357,2.301-2.094,3.84-1.844
			l14.941,2.132c2.102,0.302,4.047-1.156,4.348-3.256c0,0,0,0,0-0.002l3.26-22.816c0.301-2.1-1.158-4.046-3.26-4.348l0,0
			l-0.006-0.009l-14.943-2.132c-2.1-0.298-3.559-2.243-3.262-4.344c0.145-1.01,0.684-1.92,1.5-2.531l12.074-9.058
			c1.699-1.273,2.041-3.68,0.77-5.377l-13.828-18.438c-1.273-1.697-3.682-2.041-5.377-0.768l-12.074,9.057
			c-1.689,1.282-4.1,0.953-5.381-0.737c-0.623-0.821-0.889-1.858-0.742-2.877l2.137-14.942c0.299-2.1-1.156-4.045-3.258-4.347
			l-0.002-0.002l-22.803-3.257c-2.1-0.302-4.047,1.156-4.348,3.256c0,0.001,0,0.001,0,0.001l-2.137,14.943
			c-0.299,2.1-2.244,3.56-4.344,3.261c-1.01-0.144-1.92-0.684-2.533-1.498l-9.053-12.076c-1.273-1.697-3.68-2.042-5.377-0.769
			l-11.543,8.661C2772.586-2355.063,2775.133-2357.383,2772.438-2354.643 M2878.277-2296.103l-11.141-1.591
			c-6.299-0.899-12.137,3.479-13.035,9.778c-0.434,3.026,0.354,6.1,2.188,8.545l6.75,8.999l-12.291,9.22l-6.752-8.996
			c-3.82-5.092-11.041-6.126-16.135-2.307c-2.445,1.833-4.061,4.563-4.494,7.588l-1.557,11.154l-15.207-2.174l1.592-11.14
			c0.9-6.3-3.475-12.139-9.773-13.04c-3.029-0.434-6.102,0.354-8.549,2.189l-9.002,6.748l-9.219-12.291l8.996-6.753
			c5.092-3.818,6.125-11.041,2.307-16.132c-1.83-2.445-4.563-4.063-7.588-4.495l-11.139-1.591l2.174-15.207l11.139,1.591
			c6.301,0.901,12.141-3.475,13.041-9.774c0.434-3.028-0.354-6.103-2.188-8.549l-6.773-9.008l12.293-9.219l6.752,9.001
			c3.816,5.091,11.041,6.123,16.131,2.307c2.445-1.835,4.064-4.563,4.496-7.589l1.59-11.141l15.209,2.172l-1.592,11.139
			c-0.9,6.301,3.479,12.137,9.779,13.037c3.025,0.432,6.1-0.355,8.543-2.189l9-6.749l9.219,12.291l-8.998,6.753
			c-5.094,3.818-6.127,11.041-2.307,16.133c1.832,2.445,4.561,4.062,7.588,4.494l11.139,1.591L2878.277-2296.103z"/>
		<g>
			<g>
				<path fill="#282828" d="M2822.338-2342.579c-16.969,0-30.729,13.759-30.729,30.73c0,16.971,13.76,30.729,30.729,30.729
					c16.975,0,30.73-13.759,30.73-30.729C2853.051-2328.813,2839.303-2342.56,2822.338-2342.579z M2822.338-2288.801
					c-12.727,0-23.045-10.319-23.045-23.048c0-12.729,10.318-23.048,23.045-23.048c12.732,0,23.051,10.318,23.051,23.048
					C2845.371-2299.126,2835.061-2288.816,2822.338-2288.801z"/>
			</g>
		</g>
	</g>
</g>
</svg>
