<?xml version="1.0" encoding="utf-8"?>
<!-- Generator: Adobe Illustrator 16.0.0, SVG Export Plug-In . SVG Version: 6.00 Build 0)  -->
<!DOCTYPE svg PUBLIC "-//W3C//DTD SVG 1.1//EN" "http://www.w3.org/Graphics/SVG/1.1/DTD/svg11.dtd">
<svg version="1.1" xmlns="http://www.w3.org/2000/svg" xmlns:xlink="http://www.w3.org/1999/xlink" x="0px" y="0px"
	 width="349.23px" height="349.738px" viewBox="0 0 349.23 349.738" enable-background="new 0 0 349.23 349.738"
	 xml:space="preserve">
<g id="BACKGROUND">
</g>
<g id="OBJECTS">
	<g>
		<defs>
			<path id="SVGID_3_" d="M4.29,0h504.295c2.369,0,4.29,1.92,4.29,4.289v341.159c0,2.369-1.921,4.29-4.29,4.29H4.29
				c-2.369,0-4.29-1.921-4.29-4.29V4.289C0,1.92,1.921,0,4.29,0z"/>
		</defs>
		<clipPath id="SVGID_1_">
			<use xlink:href="#SVGID_3_"  overflow="visible"/>
		</clipPath>
		
			<linearGradient id="SVGID_2_" gradientUnits="userSpaceOnUse" x1="1203.2002" y1="1539.0845" x2="1468.746" y2="1273.5387" gradientTransform="matrix(-1 0 0 -1 1498.082 1621.7383)">
			<stop  offset="0" style="stop-color:#FF70FA"/>
			<stop  offset="0.2731" style="stop-color:#CC54F1"/>
			<stop  offset="0.8944" style="stop-color:#4E0CDC"/>
			<stop  offset="1" style="stop-color:#3800D8"/>
		</linearGradient>
		<path clip-path="url(#SVGID_1_)" fill="url(#SVGID_2_)" d="M356.125,353.809c0,0-83.352,7.77-64.634-66.561
			c13.635-54.145-10.339-74.771-30.021-78.754c-29.536-5.977-45.276,9.178-62.464,16.149c-13.965,5.664-26.843,3.236-29.129-10.114
			c-4.392-25.645,61.523-51.898,47.078-124.228c-4.836-24.21-26.998-53.559-61.121-61.151c-36.52-8.126-77.677-2.729-101.53,33.254
			c-19.003,28.665-9.479,59.523-5.365,75.749c2.814,11.1,5.008,17.729,5.862,23.366c0.622,4.11-0.44,5.889-2.163,6.513
			c-1.772,0.642-4.243,0.019-6.239-3.642c-4.457-8.171-18.815-43.488-59.955-34.965c-56.469,11.699-58.313-10.239-71.188,0.481
			S-65.433,285.57-65.433,285.57l14.163,81.11c0,0-88.008,26.45,51.27,39.618c139.277,13.169,139.277,13.169,139.277,13.169
			l122.191,11.587"/>
		<g clip-path="url(#SVGID_1_)">
			<defs>
				<path id="SVGID_6_" d="M356.125,353.809c0,0-83.352,7.77-64.634-66.561c13.635-54.145-10.339-74.771-30.021-78.754
					c-29.536-5.977-45.276,9.178-62.464,16.149c-13.965,5.664-26.843,3.236-29.129-10.114
					c-4.392-25.645,61.523-51.898,47.078-124.228c-4.836-24.21-26.998-53.559-61.121-61.151
					c-36.52-8.126-77.677-2.729-101.53,33.254c-19.003,28.665-9.479,59.523-5.365,75.749c2.814,11.1,5.008,17.729,5.862,23.366
					c0.623,4.114-0.492,6.057-2.219,6.677c-1.771,0.638-4.189-0.149-6.184-3.806c-4.457-8.171-18.815-43.488-59.955-34.965
					c-56.469,11.699-58.313-10.239-71.188,0.481S-65.433,285.57-65.433,285.57l14.163,81.11c0,0-88.008,26.45,51.27,39.618
					c139.277,13.169,139.277,13.169,139.277,13.169l122.191,11.587"/>
			</defs>
			<clipPath id="SVGID_4_">
				<use xlink:href="#SVGID_6_"  overflow="visible"/>
			</clipPath>
			<g opacity="0.18" clip-path="url(#SVGID_4_)">
				
					<image overflow="visible" width="2150" height="1869" xlink:href="9B414A9A.png"  transform="matrix(0.24 0 0 0.24 -123.7783 -22.2378)">
				</image>
			</g>
		</g>
	</g>
</g>
<g id="DESIGNED_BY_FREEPIK">
</g>
</svg>
