<?xml version="1.0" encoding="utf-8"?>
<!-- Generator: Adobe Illustrator 16.0.0, SVG Export Plug-In . SVG Version: 6.00 Build 0)  -->
<!DOCTYPE svg PUBLIC "-//W3C//DTD SVG 1.1//EN" "http://www.w3.org/Graphics/SVG/1.1/DTD/svg11.dtd">
<svg version="1.1" xmlns="http://www.w3.org/2000/svg" xmlns:xlink="http://www.w3.org/1999/xlink" x="0px" y="0px" width="251px"
	 height="209px" viewBox="0 0 251 209" enable-background="new 0 0 251 209" xml:space="preserve">
<g id="BACKGROUND">
</g>
<g id="OBJECTS">
</g>
<g id="DESIGNED_BY_FREEPIK">
	<g>
		<g>
			<linearGradient id="SVGID_1_" gradientUnits="userSpaceOnUse" x1="28.7305" y1="102.5654" x2="249.2842" y2="102.5654">
				<stop  offset="0" style="stop-color:#8E2DE2"/>
				<stop  offset="1" style="stop-color:#4A00E0"/>
			</linearGradient>
			<path fill="url(#SVGID_1_)" d="M118.87,47.679c0.594-0.008,2.092-0.111,4.182-0.252c14.905-1.007,29.223-4.961,42.665-11.7
				c11.227-5.628,26.192-8.025,34.289-5.883c0.024,0.006,0.05,0.013,0.076,0.019c2.966,0.79,5.925-0.964,6.74-3.923
				c1.926-6.996,11.239-11.958,21.072-11.958c11.813,0,21.39,6.622,21.39,14.792c0,3.448-1.725,6.622-4.589,9.139
				c-8.157,7.168-12.624,17.589-11.63,28.403c0.267,2.893,0.13,5.753-0.444,8.498c-0.28,1.343-0.67,2.637-1.159,3.878
				c-3.127,7.926-15.356,17.721-16.105,25.149c-5.742,56.982-20.708,77.701-75.521,85.795
				c-54.813,8.095-103.94-17.121-109.729-56.321C24.316,94.115,33.729,48.824,118.87,47.679z"/>
			<linearGradient id="SVGID_2_" gradientUnits="userSpaceOnUse" x1="183.1816" y1="9.3838" x2="205.542" y2="9.3838">
				<stop  offset="0" style="stop-color:#8E2DE2"/>
				<stop  offset="1" style="stop-color:#4A00E0"/>
			</linearGradient>
			<path fill="url(#SVGID_2_)" d="M186.632,6.243c1.132-0.119,2.169-0.652,2.953-1.477c1.638-1.721,4.17-2.825,7.013-2.825
				c4.94,0,8.944,3.332,8.944,7.443c0,4.11-4.004,7.442-8.944,7.442c-2.434,0-4.638-0.812-6.249-2.125
				c-0.803-0.655-1.854-0.854-2.883-0.741c-2.175,0.237-4.284-1.448-4.284-3.858C183.182,8.098,184.713,6.444,186.632,6.243z"/>
			<linearGradient id="SVGID_3_" gradientUnits="userSpaceOnUse" x1="175.251" y1="20.6724" x2="181.0654" y2="20.6724">
				<stop  offset="0" style="stop-color:#8E2DE2"/>
				<stop  offset="1" style="stop-color:#4A00E0"/>
			</linearGradient>
			<ellipse fill="url(#SVGID_3_)" cx="178.158" cy="20.672" rx="2.907" ry="2.109"/>
			<linearGradient id="SVGID_4_" gradientUnits="userSpaceOnUse" x1="62.8975" y1="45.1094" x2="75.1953" y2="45.1094">
				<stop  offset="0" style="stop-color:#8E2DE2"/>
				<stop  offset="1" style="stop-color:#4A00E0"/>
			</linearGradient>
			<ellipse fill="url(#SVGID_4_)" cx="69.046" cy="45.109" rx="6.149" ry="3.722"/>
			<linearGradient id="SVGID_5_" gradientUnits="userSpaceOnUse" x1="57.5439" y1="38.4736" x2="61.3076" y2="38.4736">
				<stop  offset="0" style="stop-color:#8E2DE2"/>
				<stop  offset="1" style="stop-color:#4A00E0"/>
			</linearGradient>
			<circle fill="url(#SVGID_5_)" cx="59.426" cy="38.474" r="1.882"/>
		</g>
		<g id="XMLID_224_">
			<g id="XMLID_286_">
				<g id="XMLID_288_">
					<linearGradient id="XMLID_17_" gradientUnits="userSpaceOnUse" x1="78.8994" y1="126.9404" x2="93.2979" y2="126.9404">
						<stop  offset="0" style="stop-color:#FFFFFF"/>
						<stop  offset="0.9372" style="stop-color:#D8C3DD"/>
						<stop  offset="1" style="stop-color:#FCFAFC"/>
					</linearGradient>
					<path id="XMLID_295_" fill="url(#XMLID_17_)" d="M93.298,99.072v86.991H78.899V99.072c0-10.263,1.709-20.279,4.942-28.28
						c0.067-0.174,0.142-0.348,0.21-0.523c0.508-1.229,1.197-2.073,1.964-2.418c0.028-0.012,0.057-0.024,0.086-0.032
						c0.027,0.008,0.052,0.02,0.081,0.032c0.762,0.345,1.456,1.189,1.959,2.418c0.073,0.175,0.146,0.349,0.216,0.523
						C91.585,78.793,93.298,88.809,93.298,99.072z"/>
					<g id="XMLID_292_">
						<path id="XMLID_294_" fill="#DBC8E0" d="M93.021,95.896H79.027c-0.44,0-0.795-0.356-0.795-0.794l0,0
							c0-0.439,0.354-0.796,0.795-0.796h13.994c0.439,0,0.796,0.356,0.796,0.796l0,0C93.817,95.541,93.461,95.896,93.021,95.896z"/>
						<path id="XMLID_293_" fill="#DBC8E0" d="M93.021,98.229H79.027c-0.44,0-0.795-0.356-0.795-0.795l0,0
							c0-0.439,0.354-0.795,0.795-0.795h13.994c0.439,0,0.796,0.356,0.796,0.795l0,0C93.817,97.873,93.461,98.229,93.021,98.229z"/>
					</g>
					<g id="XMLID_289_">
						<path id="XMLID_291_" fill="#DBC8E0" d="M93.021,149.582H79.027c-0.44,0-0.795-0.356-0.795-0.796l0,0
							c0-0.438,0.354-0.795,0.795-0.795h13.994c0.439,0,0.796,0.356,0.796,0.795l0,0C93.817,149.226,93.461,149.582,93.021,149.582z
							"/>
						<path id="XMLID_290_" fill="#DBC8E0" d="M93.021,151.914H79.027c-0.44,0-0.795-0.356-0.795-0.795l0,0
							c0-0.439,0.354-0.795,0.795-0.795h13.994c0.439,0,0.796,0.356,0.796,0.795l0,0C93.817,151.558,93.461,151.914,93.021,151.914z
							"/>
					</g>
				</g>
				<linearGradient id="XMLID_18_" gradientUnits="userSpaceOnUse" x1="78.8994" y1="164.1172" x2="93.2979" y2="164.1172">
					<stop  offset="0" style="stop-color:#FFFFFF"/>
					<stop  offset="0.9372" style="stop-color:#D8C3DD"/>
					<stop  offset="1" style="stop-color:#FCFAFC"/>
				</linearGradient>
				<path id="XMLID_287_" fill="url(#XMLID_18_)" d="M93.298,147.3v33.635H78.899v-23.339c2.504-2.88,5.729-5.469,9.895-7.355
					C90.467,149.482,91.963,148.488,93.298,147.3z"/>
			</g>
			<linearGradient id="XMLID_19_" gradientUnits="userSpaceOnUse" x1="95.8252" y1="104.4277" x2="136.7285" y2="104.4277">
				<stop  offset="0" style="stop-color:#FFFFFF"/>
				<stop  offset="0.9372" style="stop-color:#C6A3CF"/>
				<stop  offset="1" style="stop-color:#EED6EE"/>
			</linearGradient>
			<path id="XMLID_285_" fill="url(#XMLID_19_)" d="M136.729,65.645v122.138H95.825V65.645c0-14.65,4.859-28.942,14.036-40.361
				c0.202-0.248,0.402-0.496,0.607-0.747c1.433-1.752,3.401-2.958,5.571-3.449c0.077-0.02,0.397-0.02,0.475,0
				c2.17,0.491,4.139,1.696,5.57,3.449c0.206,0.251,0.405,0.499,0.608,0.747C131.869,36.703,136.729,50.995,136.729,65.645z"/>
			<linearGradient id="XMLID_20_" gradientUnits="userSpaceOnUse" x1="95.8252" y1="137.9009" x2="114.8799" y2="137.9009">
				<stop  offset="0" style="stop-color:#FFFFFF"/>
				<stop  offset="0.9372" style="stop-color:#D8C3DD"/>
				<stop  offset="1" style="stop-color:#FCFAFC"/>
			</linearGradient>
			<path id="XMLID_284_" fill="url(#XMLID_20_)" d="M114.304,86.007l0.576,103.788H95.825v-80.629
				C102.665,93.92,114.304,86.007,114.304,86.007z"/>
			<g id="XMLID_278_">
				<g id="XMLID_280_">
					<linearGradient id="XMLID_21_" gradientUnits="userSpaceOnUse" x1="78.998" y1="193.833" x2="93.1963" y2="193.833">
						<stop  offset="0" style="stop-color:#FFFFFF"/>
						<stop  offset="1" style="stop-color:#D8C3DD"/>
					</linearGradient>
					<rect id="XMLID_283_" x="78.998" y="189.101" fill="url(#XMLID_21_)" width="14.198" height="9.465"/>
					<rect id="XMLID_282_" x="78.701" y="194.628" fill="#DBC7E0" width="14.796" height="2.163"/>
					<rect id="XMLID_281_" x="78.701" y="190.773" fill="#DBC7E0" width="14.796" height="2.165"/>
				</g>
				<linearGradient id="XMLID_22_" gradientUnits="userSpaceOnUse" x1="78.998" y1="193.4502" x2="93.1963" y2="193.4502">
					<stop  offset="0" style="stop-color:#FFFFFF"/>
					<stop  offset="0.9372" style="stop-color:#D8C3DD"/>
					<stop  offset="1" style="stop-color:#FCFAFC"/>
				</linearGradient>
				<polygon id="XMLID_279_" fill="url(#XMLID_22_)" points="93.196,189.101 78.998,197.799 78.998,189.101 				"/>
			</g>
			<g id="XMLID_261_">
				<g id="XMLID_268_">
					<g id="XMLID_270_">
						
							<linearGradient id="XMLID_23_" gradientUnits="userSpaceOnUse" x1="1728.8135" y1="126.9404" x2="1743.21" y2="126.9404" gradientTransform="matrix(-1 0 0 1 1883.084 0)">
							<stop  offset="0" style="stop-color:#FFFFFF"/>
							<stop  offset="0.9372" style="stop-color:#D8C3DD"/>
							<stop  offset="1" style="stop-color:#FCFAFC"/>
						</linearGradient>
						<path id="XMLID_277_" fill="url(#XMLID_23_)" d="M139.874,99.072v86.991h14.396V99.072c0-10.263-1.707-20.279-4.94-28.28
							c-0.068-0.174-0.143-0.348-0.212-0.523c-0.507-1.229-1.195-2.073-1.963-2.418c-0.027-0.012-0.056-0.024-0.085-0.032
							c-0.029,0.008-0.052,0.02-0.08,0.032c-0.763,0.345-1.457,1.189-1.96,2.418c-0.072,0.175-0.146,0.349-0.216,0.523
							C141.586,78.793,139.874,88.809,139.874,99.072z"/>
						<g id="XMLID_274_">
							<path id="XMLID_276_" fill="#DBC8E0" d="M140.149,95.896h13.995c0.438,0,0.795-0.356,0.795-0.794l0,0
								c0-0.439-0.356-0.796-0.795-0.796h-13.995c-0.438,0-0.795,0.356-0.795,0.796l0,0
								C139.354,95.541,139.711,95.896,140.149,95.896z"/>
							<path id="XMLID_275_" fill="#DBC8E0" d="M140.149,98.229h13.995c0.438,0,0.795-0.356,0.795-0.795l0,0
								c0-0.439-0.356-0.795-0.795-0.795h-13.995c-0.438,0-0.795,0.356-0.795,0.795l0,0
								C139.354,97.873,139.711,98.229,140.149,98.229z"/>
						</g>
						<g id="XMLID_271_">
							<path id="XMLID_273_" fill="#DBC8E0" d="M140.149,149.582h13.995c0.438,0,0.795-0.356,0.795-0.796l0,0
								c0-0.438-0.356-0.795-0.795-0.795h-13.995c-0.438,0-0.795,0.356-0.795,0.795l0,0
								C139.354,149.226,139.711,149.582,140.149,149.582z"/>
							<path id="XMLID_272_" fill="#DBC8E0" d="M140.149,151.914h13.995c0.438,0,0.795-0.356,0.795-0.795l0,0
								c0-0.439-0.356-0.795-0.795-0.795h-13.995c-0.438,0-0.795,0.356-0.795,0.795l0,0
								C139.354,151.558,139.711,151.914,140.149,151.914z"/>
						</g>
					</g>
					
						<linearGradient id="XMLID_24_" gradientUnits="userSpaceOnUse" x1="1728.8135" y1="164.1172" x2="1743.21" y2="164.1172" gradientTransform="matrix(-1 0 0 1 1883.084 0)">
						<stop  offset="0" style="stop-color:#FFFFFF"/>
						<stop  offset="0.9372" style="stop-color:#D8C3DD"/>
						<stop  offset="1" style="stop-color:#FCFAFC"/>
					</linearGradient>
					<path id="XMLID_269_" fill="url(#XMLID_24_)" d="M139.874,147.3v33.635h14.396v-23.339c-2.502-2.88-5.728-5.469-9.895-7.355
						C142.706,149.482,141.208,148.488,139.874,147.3z"/>
				</g>
				<g id="XMLID_262_">
					<g id="XMLID_264_">
						
							<linearGradient id="XMLID_25_" gradientUnits="userSpaceOnUse" x1="1728.9092" y1="193.833" x2="1743.1094" y2="193.833" gradientTransform="matrix(-1 0 0 1 1883.084 0)">
							<stop  offset="0" style="stop-color:#FFFFFF"/>
							<stop  offset="1" style="stop-color:#D8C3DD"/>
						</linearGradient>
						<rect id="XMLID_267_" x="139.975" y="189.101" fill="url(#XMLID_25_)" width="14.2" height="9.465"/>
						<rect id="XMLID_266_" x="139.676" y="194.628" fill="#DBC7E0" width="14.795" height="2.163"/>
						<rect id="XMLID_265_" x="139.676" y="190.773" fill="#DBC7E0" width="14.795" height="2.165"/>
					</g>
					
						<linearGradient id="XMLID_26_" gradientUnits="userSpaceOnUse" x1="1728.9092" y1="193.4502" x2="1743.1094" y2="193.4502" gradientTransform="matrix(-1 0 0 1 1883.084 0)">
						<stop  offset="0" style="stop-color:#FFFFFF"/>
						<stop  offset="0.9372" style="stop-color:#D8C3DD"/>
						<stop  offset="1" style="stop-color:#FCFAFC"/>
					</linearGradient>
					<polygon id="XMLID_263_" fill="url(#XMLID_26_)" points="139.975,189.101 154.175,197.799 154.175,189.101 					"/>
				</g>
			</g>
			<path id="XMLID_260_" fill="#DAC6DF" d="M104.061,110.838c0,0,3.26,37.779-15.268,46.162
				c-18.525,8.384-18.525,30.697-18.525,30.697h45.571v-63.692L104.061,110.838z"/>
			<path id="XMLID_259_" fill="#DAC6DF" d="M127.387,111.177c0,0-2.975,37.44,15.552,45.824
				c18.524,8.384,18.524,30.697,18.524,30.697h-45.57v-63.692L127.387,111.177z"/>
			<linearGradient id="XMLID_27_" gradientUnits="userSpaceOnUse" x1="70.2676" y1="150.2988" x2="115.8379" y2="150.2988">
				<stop  offset="0" style="stop-color:#FFFFFF"/>
				<stop  offset="0.9372" style="stop-color:#D8C3DD"/>
				<stop  offset="1" style="stop-color:#FCFAFC"/>
			</linearGradient>
			<path id="XMLID_258_" fill="url(#XMLID_27_)" d="M115.838,125.933v63.691h-45.57c0,0,0-22.312,18.526-30.697
				c1.867-0.844,3.515-2.004,4.966-3.412c7.68-7.419,9.959-21.65,10.539-32.036c0.402-7.169-0.004-12.504-0.004-12.504
				L115.838,125.933z"/>
			<linearGradient id="XMLID_28_" gradientUnits="userSpaceOnUse" x1="115.8926" y1="149.9268" x2="161.4629" y2="149.9268">
				<stop  offset="0.2301" style="stop-color:#D8C3DD"/>
				<stop  offset="1" style="stop-color:#FCFAFC"/>
			</linearGradient>
			<path id="XMLID_257_" fill="url(#XMLID_28_)" d="M127.217,110.229c0,0-2.805,40.314,15.722,48.698
				c18.524,8.384,18.524,30.696,18.524,30.696h-45.57v-63.691L127.217,110.229z"/>
			<linearGradient id="XMLID_30_" gradientUnits="userSpaceOnUse" x1="82.5391" y1="156.5024" x2="112.5791" y2="156.5024">
				<stop  offset="0" style="stop-color:#FFFFFF"/>
				<stop  offset="0.9372" style="stop-color:#D8C3DD"/>
				<stop  offset="1" style="stop-color:#FCFAFC"/>
			</linearGradient>
			<path id="XMLID_256_" fill="url(#XMLID_30_)" d="M112.579,123.92l-1.586,65.704H82.539l11.221-34.109
				c7.68-7.419,9.959-21.65,10.539-32.036l0.033-0.097L112.579,123.92z"/>
			<path id="XMLID_255_" fill="#F3ECF4" d="M127.705,112.778c0-0.911-0.079-1.819-0.234-2.719
				c-0.938-5.42-4.702-24.328-11.632-24.39h-0.035c-6.858,0.061-10.617,18.587-11.602,24.221c-0.177,1.011-0.263,2.034-0.263,3.061
				v74.138l11.883-0.541l11.883,0.541V112.778z"/>
			<linearGradient id="XMLID_31_" gradientUnits="userSpaceOnUse" x1="103.4795" y1="136.8389" x2="127.2441" y2="136.8389">
				<stop  offset="0" style="stop-color:#FFFFFF"/>
				<stop  offset="0.7866" style="stop-color:#D8C3DD"/>
				<stop  offset="1" style="stop-color:#FCFAFC"/>
			</linearGradient>
			<path id="XMLID_254_" fill="url(#XMLID_31_)" d="M127.244,113.238c0-0.912-0.078-1.82-0.232-2.719
				c-0.938-5.42-4.702-24.328-11.633-24.389h-0.033c-6.86,0.061-10.618,18.587-11.603,24.22c-0.178,1.012-0.264,2.034-0.264,3.061
				v74.137l11.883-0.54l11.882,0.54V113.238z"/>
			<path id="XMLID_253_" fill="#D9C4DE" d="M120.929,107.153c-2.967-2.969-7.781-2.969-10.748,0
				c-0.719-0.717-1.436-1.434-2.153-2.151c4.158-4.157,10.896-4.157,15.053,0C122.364,105.719,121.647,106.436,120.929,107.153z"/>
			<linearGradient id="XMLID_89_" gradientUnits="userSpaceOnUse" x1="100.3926" y1="183.3545" x2="116.8887" y2="183.3545">
				<stop  offset="0" style="stop-color:#FFFFFF"/>
				<stop  offset="0.9372" style="stop-color:#D8C3DD"/>
			</linearGradient>
			<path id="XMLID_252_" fill="url(#XMLID_89_)" d="M116.889,171.32v24.069h-16.496v-13.792c0-5.676,4.602-10.276,10.277-10.276
				H116.889z"/>
			<linearGradient id="XMLID_90_" gradientUnits="userSpaceOnUse" x1="115.3984" y1="183.3535" x2="131.8975" y2="183.3535">
				<stop  offset="0" style="stop-color:#FCFAFC"/>
				<stop  offset="0.0628" style="stop-color:#D8C3DD"/>
				<stop  offset="1" style="stop-color:#FFFFFF"/>
			</linearGradient>
			<path id="XMLID_251_" fill="url(#XMLID_90_)" d="M115.398,195.389h16.499v-13.792c0-5.676-4.602-10.277-10.277-10.277h-6.222
				V195.389z"/>
			<linearGradient id="XMLID_91_" gradientUnits="userSpaceOnUse" x1="102.8037" y1="183.3545" x2="116.3926" y2="183.3545">
				<stop  offset="0" style="stop-color:#FFFFFF"/>
				<stop  offset="0.9372" style="stop-color:#D8C3DD"/>
				<stop  offset="1" style="stop-color:#FCFAFC"/>
			</linearGradient>
			<polygon id="XMLID_250_" fill="url(#XMLID_91_)" points="116.393,195.389 102.804,195.389 112.325,171.32 115.432,171.32 			"/>
			<g id="XMLID_242_">
				<circle id="XMLID_248_" fill="#DBC8E0" cx="101.018" cy="83.421" r="0.406"/>
				<circle id="XMLID_247_" fill="#DBC8E0" cx="101.018" cy="80.175" r="0.406"/>
				<circle id="XMLID_246_" fill="#DBC8E0" cx="101.018" cy="76.93" r="0.406"/>
				<circle id="XMLID_245_" fill="#DBC8E0" cx="101.018" cy="73.685" r="0.406"/>
				<circle id="XMLID_244_" fill="#DBC8E0" cx="101.018" cy="70.439" r="0.406"/>
				<circle id="XMLID_243_" fill="#DBC8E0" cx="101.018" cy="67.194" r="0.406"/>
			</g>
			<g id="XMLID_235_">
				<circle id="XMLID_241_" fill="#F1EAF3" cx="115.689" cy="131.224" r="0.406"/>
				<circle id="XMLID_240_" fill="#F1EAF3" cx="115.689" cy="127.979" r="0.406"/>
				<circle id="XMLID_239_" fill="#F1EAF3" cx="115.689" cy="124.733" r="0.406"/>
				<circle id="XMLID_238_" fill="#F1EAF3" cx="115.689" cy="121.488" r="0.406"/>
				<circle id="XMLID_237_" fill="#F1EAF3" cx="115.689" cy="118.242" r="0.406"/>
				<circle id="XMLID_236_" fill="#F1EAF3" cx="115.689" cy="114.997" r="0.406"/>
			</g>
			<linearGradient id="XMLID_92_" gradientUnits="userSpaceOnUse" x1="113.7627" y1="181.647" x2="118.124" y2="181.647">
				<stop  offset="0" style="stop-color:#FFFFFF"/>
				<stop  offset="0.8033" style="stop-color:#D8C3DD"/>
				<stop  offset="1" style="stop-color:#FCFAFC"/>
			</linearGradient>
			<path id="XMLID_249_" fill="url(#XMLID_92_)" d="M115.943,197.316L115.943,197.316c-1.204,0-2.181-0.977-2.181-2.181v-26.978
				c0-1.204,0.977-2.18,2.181-2.18l0,0c1.205,0,2.181,0.976,2.181,2.18v26.978C118.124,196.34,117.148,197.316,115.943,197.316z"/>
		</g>
		<g>
			<path fill="#FAB9AF" d="M181.642,191.62l1.239,4.864c0.057,0.182,0.139,0.354,0.244,0.513l0.879,1.306
				c0.559,0.829,0.157,1.962-0.799,2.254c0,0-1.773,0.624-3.603,1.225c-1.872,0.614-4.225,0.101-4.225-0.393
				c0-1.098,1.023-0.227,2.736-1.373c0.574-0.384,1.168-0.786,1.695-1.201c1.475-1.157,0.188-4.089-0.716-5.739
				c-0.325-0.593,0.02-2.075,0.683-2.216l0.427-0.092C180.831,190.636,181.457,191.005,181.642,191.62z"/>
			<path fill="#FAB9AF" d="M180.533,149.952c-0.356-0.899-0.616-1.839-0.794-2.181c-0.074-0.142-0.389-0.462-0.474-0.561
				c-0.248-0.292-0.679-0.704-0.736-1.082l-0.265-1.588c-0.113-0.77-0.574-1.298-1.344-1.183l0,0
				c-0.833,0.125-1.105,0.893-0.886,1.706l0.167,1.115c0.177,0.651,0.042,1.319-0.058,1.986c-0.205,1.357,0.355,2.841,0.917,3.99
				c0.352,0.72,1.385,1.04,2.782,1.389c0.687,0.17,1.801,0.231,1.27-0.484c-0.445-0.6-2.526-1.266-2.253-3.405
				c0.014-0.105,0.067-0.372,0.195-0.396c0.382-0.069,0.579,0.771,0.824,1.159c0.345,0.543,0.789,0.718,1.028,0.619
				C181.163,150.93,180.788,150.593,180.533,149.952z"/>
			<path fill="#B0B0FF" d="M184.888,100.356c-2.197,6.927-7.842,19.894-16.061,24.496c-5.623,3.147-19.149,7.685-19.149,7.685
				s-0.452-0.554-0.738-1.063c-0.297-0.525-0.492-1.201-0.492-1.201s16.843-8.639,19.101-11.142
				c2.257-2.504,9.795-18.474,12.049-20.975C182.229,95.235,186.12,96.475,184.888,100.356z"/>
			<polygon fill="#FAB9AF" points="177.563,133.882 182.89,96.451 197.262,94.478 204.736,133.612 			"/>
			<path fill="#FAB9AF" d="M208.423,190.7l1.453,4.827c0.064,0.213,0.16,0.416,0.284,0.601l1.031,1.53
				c0.654,0.972,0.183,2.299-0.938,2.641c0,0-2.078,0.731-4.22,1.435c-2.192,0.72-4.95,0.118-4.95-0.46
				c0-1.286,1.198-0.266,3.205-1.608c0.674-0.45,1.368-0.921,1.987-1.407c1.728-1.356,0.218-4.79-0.839-6.724
				c-0.38-0.695,0.022-1.559,0.799-1.724l0.5-0.107C207.472,189.546,208.204,189.979,208.423,190.7z"/>
			<path fill="#5046AF" d="M193.572,134.245l-15.925-1.337c0,0-5.637,20.224-7.134,29.203c-1.082,6.504,8.77,31.65,8.77,31.65
				c0.976,0.427,1.92-0.115,2.931-0.366c0,0-2.991-22.212-1.973-27.62c1.061-5.641,9.562-17.072,10.107-20.066
				C191.463,139.59,193.572,134.245,193.572,134.245z"/>
			<path fill="#5046AF" d="M190.285,134.447c-1.644,8.824-5.317,22.02,1.759,34.416c7.075,12.396,14.507,25.284,14.507,25.284
				c0.956,0.04,1.825-0.308,2.632-0.92c0,0-1.241-5.62-3.034-12.182c-2.052-7.506-4.65-16.336-3.909-20.94
				c1.388-8.628,2.981-20.12,2.497-25.699C204.254,128.824,191.15,129.806,190.285,134.447z"/>
			<path fill="#D2F0FF" d="M177.782,134.416c-0.559-0.27-0.868-0.875-0.771-1.486l5.878-36.478l14.372-1.973l7.725,38.519
				c0.145,0.724-0.323,1.427-1.049,1.564c-2.677,0.508-9.13,1.567-16.354,1.567C182.191,136.127,179.161,135.079,177.782,134.416z"
				/>
			<path fill="#B0B0FF" d="M194.033,104.136c1.751,4.742,4.539,14.104,2.939,22.333c-2.255,11.591-5.152,16.277-1.396,18.978
				s10.961-1.806,11.169-3.308c0.207-1.503-1.401-19.961-3.227-27.958c-1.824-7.997-6.937-19.493-6.937-19.493l-2.666,0.239
				C193.917,94.926,193.197,101.876,194.033,104.136z"/>
			<path fill="#B0B0FF" d="M185.411,96.104c0,0-1.115,5.198-0.245,12.938c0.869,7.739,2.884,31.308-4.158,34.867
				c-2.231,1.127-7.324-4.682-7.324-5.715c0-1.852,1.7-8.05,3.311-13.684c1.295-4.527,2.603-19.651,3.065-25.427
				c0.107-1.328,1.123-2.397,2.441-2.579L185.411,96.104z"/>
			<g>
				<path fill="#41378C" d="M195.823,80.282c0,0-0.273,2.165,1.032,3.75c1.305,1.584-0.592,3.06-1.032,4.138
					c-0.443,1.078,0.104,2.678-1.135,3.41c-1.238,0.732-4.769,0.924-5.33-0.364C188.799,89.928,191.838,79.544,195.823,80.282z"/>
				<path fill="#41378C" d="M181.598,83.135c-0.192,7.083,6.4,8.445,10.236,8.445c3.833,0,3.989-8.493,3.989-11.553
					s-3.015-3.542-6.848-3.542c-3.021,0-5.878,2.34-7.057,4.585C181.602,81.674,181.616,82.484,181.598,83.135z"/>
				<path fill="#FAB9AF" d="M188.796,79.219c3.208,0,4.404,2.284,4.465,6.508c0.022,1.582-0.688,3.149-1.261,4.15
					c-0.427,0.743-0.542,1.624-0.3,2.445l0.704,2.383c0.479,2.211-0.57,3.425-2.122,3.865c-0.769,0.218-1.688,0.049-2.357-0.384
					c-0.798-0.516-0.863-1.623-0.716-2.562l0.182-0.68c0.245-0.916-0.286-1.903-1.211-2.105c-2.471-0.541-2.823-3.115-3.486-7.113
					C182.004,81.559,185.588,79.219,188.796,79.219z"/>
				<path fill="#41378C" d="M181.327,77.365l1.838,0.559c0.677,0.205,1.397,0.21,2.076,0.014l3.673-1.066
					c2.225,0,5.898,1.256,5.435,4.466l-0.41,2.271c-0.164,0.907-0.92,1.585-1.839,1.664l0,0c-0.085,0.314-0.369,0.532-0.694,0.532
					c-0.397,0-0.72-0.322-0.72-0.72l0,0c0-1.024-0.719-1.897-1.719-2.122c-1.226-0.274-2.534-0.34-3.904,0.028
					c-2.552,0.686-5.243-0.897-5.498-3.527c-0.017-0.166-0.024-0.336-0.024-0.507C179.54,77.896,180.418,77.114,181.327,77.365z"/>
				<path fill="#FAB9AF" d="M191.493,85.805c0,0.979,0.364,1.773,1.308,1.773c0.941,0,1.548-1.348,1.548-2.327
					s-0.606-1.22-1.548-1.22C191.857,84.032,191.493,84.826,191.493,85.805z"/>
				<path fill="#FA968C" d="M183.64,88.731c-0.101,0.459,0.249,0.893,0.719,0.893l0,0c0.39,0,0.713-0.304,0.735-0.694l0.001-3.124
					c0-0.117-0.046-0.229-0.128-0.311c-0.082-0.083-0.194-0.128-0.31-0.128c-0.167,0-0.31,0.116-0.345,0.278L183.64,88.731z"/>
			</g>
			<path fill="#AFE6FF" d="M190.234,101.727c0.19,0,0.359,0.124,0.417,0.306c0.494,1.572,2.73,8.822,3.229,12.729
				c0.408,3.187-0.88,8.795-1.623,11.646c-0.292,1.128-1.021,2.09-2.025,2.683l-0.504,0.298c-0.43,0.252-0.981,0.107-1.23-0.323
				l-0.412-0.712c-0.312-0.539-0.364-1.188-0.142-1.768c0.868-2.26,3-8.263,2.818-12.249c-0.063-1.401-1.423-9.934-1.772-12.106
				c-0.041-0.265,0.162-0.503,0.432-0.503L190.234,101.727z"/>
			<path fill="#5159BF" d="M189.742,100.67c0.19,0.004,0.357,0.131,0.41,0.314c0.459,1.583,2.531,8.881,2.942,12.799
				c0.335,3.194-1.08,8.772-1.885,11.607c-0.319,1.121-1.07,2.066-2.087,2.636l-0.512,0.286c-0.434,0.244-0.983,0.086-1.223-0.35
				l-0.395-0.721c-0.3-0.546-0.339-1.196-0.103-1.771c0.919-2.24,3.186-8.193,3.094-12.181c-0.033-1.403-1.198-9.964-1.498-12.143
				c-0.037-0.266,0.174-0.5,0.441-0.494L189.742,100.67z"/>
			<path fill="#5159BF" d="M188.547,100.887h1.381c0.232,0,0.421-0.188,0.421-0.42v-1.38c0-0.233-0.188-0.421-0.421-0.421
				l-1.246-0.134c-0.232,0-0.555,0.322-0.555,0.555v1.38C188.127,100.698,188.315,100.887,188.547,100.887z"/>
			<path fill="#FFFFFF" d="M192.318,94.411l2.327,0.408c0,0-0.464,3.757-2.319,6.573c-0.133,0.2-0.432,0.199-0.571,0.004
				l-1.652-2.295c-0.19-0.264-0.205-0.616-0.04-0.896L192.318,94.411z"/>
			<path fill="#FFFFFF" d="M187.261,95.404l-2.328,0.766c0,0-0.073,2.323,1.72,4.997c0.135,0.2,0.437,0.192,0.568-0.011l1.351-2.099
				c0.157-0.244,0.176-0.551,0.051-0.812L187.261,95.404z"/>
			<g>
				<path fill="#6E64C3" d="M191.723,124.34v-4.855c0-1.125-0.911-2.037-2.035-2.037h-1.51c-0.961,0-1.818-0.604-2.133-1.512
					c-0.239-0.69-0.519-1.361-0.834-2.011c-0.421-0.866-0.244-1.902,0.436-2.582l1.068-1.068c0.796-0.795,0.796-2.085,0-2.881
					l-3.433-3.433c-0.796-0.795-2.085-0.795-2.881,0l-1.068,1.068c-0.68,0.68-1.716,0.856-2.581,0.436
					c-0.649-0.316-1.321-0.594-2.011-0.833c-0.908-0.314-1.513-1.173-1.513-2.133v-1.509c0-1.125-0.913-2.038-2.037-2.038h-4.855
					c-1.125,0-2.037,0.912-2.037,2.038v1.509c0,0.96-0.605,1.819-1.513,2.133c-0.69,0.239-1.36,0.517-2.012,0.833
					c-0.864,0.421-1.9,0.245-2.581-0.436l-1.068-1.068c-0.795-0.795-2.085-0.795-2.881,0l-3.433,3.433
					c-0.796,0.796-0.796,2.085,0,2.881l1.068,1.068c0.681,0.68,0.856,1.716,0.437,2.582c-0.316,0.649-0.596,1.321-0.834,2.011
					c-0.314,0.908-1.173,1.512-2.132,1.512h-1.51c-1.126,0-2.037,0.913-2.037,2.037v4.855c0,1.125,0.911,2.037,2.037,2.037h1.51
					c0.959,0,1.817,0.605,2.132,1.513c0.238,0.69,0.518,1.361,0.834,2.011c0.42,0.865,0.244,1.902-0.437,2.582l-1.068,1.068
					c-0.796,0.796-0.796,2.085,0,2.881l3.433,3.433c0.796,0.796,2.086,0.796,2.881,0l1.068-1.068
					c0.681-0.68,1.717-0.856,2.581-0.436c0.651,0.317,1.321,0.595,2.012,0.834c0.907,0.314,1.513,1.172,1.513,2.133v1.509
					c0,1.125,0.912,2.037,2.037,2.037h4.855c1.124,0,2.037-0.912,2.037-2.037v-1.509c0-0.96,0.604-1.819,1.513-2.133
					c0.689-0.239,1.361-0.517,2.011-0.834c0.865-0.42,1.901-0.244,2.581,0.436l1.068,1.068c0.796,0.796,2.085,0.796,2.881,0
					l3.433-3.433c0.796-0.795,0.796-2.085,0-2.881l-1.068-1.068c-0.68-0.68-0.856-1.716-0.436-2.582
					c0.315-0.65,0.595-1.321,0.834-2.011c0.314-0.907,1.172-1.513,2.133-1.513h1.51C190.812,126.377,191.723,125.465,191.723,124.34
					z M169.661,132.932c-6.813,0.538-12.454-5.104-11.917-11.917c0.422-5.358,4.765-9.7,10.122-10.122
					c6.813-0.537,12.453,5.105,11.916,11.917C179.36,128.168,175.02,132.51,169.661,132.932z"/>
				<path fill="#FFFFFF" d="M198.52,125.059v-6.292c0-1.458-1.181-2.64-2.639-2.64h-1.957c-1.245,0-2.356-0.784-2.764-1.961
					c-0.31-0.895-0.671-1.764-1.081-2.606c-0.546-1.122-0.316-2.464,0.565-3.346l1.385-1.384c1.031-1.032,1.031-2.703,0-3.733
					l-4.449-4.45c-1.032-1.031-2.703-1.031-3.733,0l-1.384,1.384c-0.883,0.882-2.225,1.111-3.347,0.565
					c-0.842-0.41-1.713-0.771-2.606-1.081c-1.176-0.407-1.96-1.519-1.96-2.764v-1.956c0-1.458-1.182-2.64-2.64-2.64h-6.293
					c-1.458,0-2.639,1.182-2.639,2.64v1.956c0,1.245-0.784,2.357-1.962,2.764c-0.894,0.31-1.765,0.67-2.606,1.081
					c-1.121,0.545-2.464,0.316-3.346-0.565l-1.383-1.384c-1.031-1.031-2.703-1.031-3.734,0l-4.45,4.45
					c-1.029,1.03-1.029,2.702,0,3.733l1.385,1.384c0.882,0.881,1.111,2.224,0.566,3.346c-0.411,0.842-0.771,1.711-1.081,2.606
					c-0.406,1.177-1.52,1.961-2.764,1.961h-1.956c-1.458,0-2.64,1.182-2.64,2.64v6.292c0,1.458,1.182,2.64,2.64,2.64h1.956
					c1.244,0,2.357,0.784,2.764,1.96c0.31,0.895,0.67,1.764,1.081,2.606c0.545,1.122,0.315,2.465-0.566,3.346l-1.385,1.384
					c-1.029,1.031-1.029,2.703,0,3.733l4.45,4.449c1.031,1.031,2.703,1.031,3.734,0l1.383-1.383
					c0.882-0.882,2.225-1.112,3.346-0.565c0.842,0.41,1.713,0.771,2.606,1.08c1.178,0.407,1.962,1.519,1.962,2.764v1.956
					c0,1.458,1.181,2.639,2.639,2.639h6.293c1.458,0,2.64-1.181,2.64-2.639v-1.956c0-1.245,0.784-2.357,1.96-2.764
					c0.894-0.31,1.765-0.67,2.606-1.08c1.122-0.546,2.464-0.317,3.347,0.565l1.384,1.383c1.03,1.031,2.701,1.031,3.733,0
					l4.449-4.449c1.031-1.031,1.031-2.703,0-3.733l-1.385-1.384c-0.882-0.881-1.111-2.225-0.565-3.346
					c0.41-0.842,0.771-1.711,1.081-2.606c0.407-1.176,1.519-1.96,2.764-1.96h1.957C197.339,127.699,198.52,126.517,198.52,125.059z
					 M169.926,136.193c-8.827,0.696-16.141-6.616-15.444-15.443c0.549-6.945,6.174-12.571,13.12-13.118
					c8.827-0.696,16.14,6.615,15.443,15.443C182.496,130.02,176.871,135.646,169.926,136.193z"/>
				<circle fill="none" stroke="#41378C" stroke-width="2.9615" stroke-miterlimit="10" cx="168.764" cy="121.913" r="19.103"/>
				<path fill="none" stroke="#5046AF" stroke-width="2.9615" stroke-linecap="round" stroke-miterlimit="10" d="M149.661,121.913
					c0-10.55,8.552-19.103,19.103-19.103"/>
			</g>
			<path fill="#FAB9AF" d="M169.164,102.886c0.527-0.447,0.615-1.229,0.2-1.784l-0.501-0.668c-0.58-0.773-1.01-1.667-0.984-2.633
				c0.016-0.659-0.412-2.512-1.094-2.397c-0.589,0.1,0.036,2.38-0.559,2.324c-0.274-0.025-1.258-1.648-1.984-2.617
				c-0.395-0.527-1.136-0.787-1.264-0.315c-0.082,0.295-0.38,0.346-0.752,0.608c-0.351,0.246-0.162,1.908-0.154,2.344
				c0.008,0.543-0.197,0.709,0.651,1.674c0.645,0.734,3.456,2.566,3.456,2.566l1.243,0.855
				C167.907,103.298,168.656,103.315,169.164,102.886L169.164,102.886z"/>
			<path fill="#B0B0FF" d="M168.764,100.29c0,0,11.604,11.141,14.326,12.071c2.724,0.931,10.508-15.21,11.902-16.875
				c2.31-2.758,7.293,0.085,6.434,5.191c-1.086,6.441-16.448,18.849-18.336,19.026s-16.305-16.995-16.305-16.995
				C166.931,101.922,167.614,101.115,168.764,100.29z"/>
		</g>
		<g>
			<path fill="#FAB9AF" d="M80.264,60.299c-0.163,0.093-0.508,0.283-0.715,0.864c-0.047,0.131-0.052,0.256-0.037,0.365
				c0.04,0.292-0.082,0.574-0.287,0.783c-0.165,0.167-0.332,0.39-0.419,0.658c-0.126,0.381-0.233,0.947-0.117,1.395
				c0.095,0.357,0.104,0.734,0.024,1.094c-0.048,0.216-0.021,0.451,0.09,0.662c0.252,0.477,0.842,0.661,1.318,0.409
				c0.347-0.182,0.536-0.542,0.519-0.909c-0.01-0.188,0.051-0.374,0.17-0.519c0.016-0.019,0.03-0.04,0.045-0.063
				c0.163-0.274,0.183-0.523,0.15-0.72c-0.045-0.262,0.037-0.527,0.244-0.693c0.19-0.152,0.392-0.387,0.487-0.734
				c0.063-0.231,0.063-0.405,0.031-0.536c-0.062-0.257,0.04-0.517,0.233-0.696c0.187-0.169,0.336-0.408,0.289-0.725
				C82.183,60.204,80.797,59.997,80.264,60.299z"/>
			<path fill="#FAB9AF" d="M74.534,62.979c0.004-0.006,0.007-0.012,0.01-0.017c0.202-0.399,0.456-0.771,0.754-1.105l1.046-1.172
				c0.766-0.715,1.165-1.334,2.047-1.429c1.445-0.154,3.476-0.232,3.542,0.536c0.063,0.75-1.837,1.22-2.923,1.363
				c-0.362,0.048-0.659,0.315-0.741,0.673c0,0,0.534,4.29-1.716,4.455l-0.544,1.556l-2.668-0.435l0.563-2.641
				C74.035,64.144,74.247,63.543,74.534,62.979z"/>
			<path fill="#5046AF" d="M51.854,82.852c0,0-6.139-2.5-8.403,1.51c-2.265,4.01,1.096,14.64-7.078,16.087
				c-8.175,1.446-9.051,9.643-8.402,13.228c1.872,10.341,16.818,20.677,27.171,9.75c10.351-10.928-2.504-18.317-3.462-23.833
				C50.721,94.079,57.156,86.75,51.854,82.852z"/>
			<path fill="#41378C" d="M56.279,101.894c-0.045-4.235,8.461-8.696-0.404-17.327c-0.26-0.252-0.66-0.285-0.938-0.055
				c-0.733,0.604-3.075,0.889-4.256,1.937c-2.212,1.964-5.656,7.387-4.563,10.135c2.329,5.865-1.596,10.804-1.912,17.416
				c-0.253,6.79,10.807,13.532,16.164,11.648c1.917-0.674,3.006-2.04,3.575-3.712c0.435-1.276,0.304-2.694-0.33-3.883
				c-0.003-0.005-0.007-0.012-0.01-0.018C61.537,114.157,56.427,116.026,56.279,101.894z"/>
			<path fill="#FAB9AF" d="M70.162,163.203c2.577-14.14,1.483-26.054,0.492-32.336c-0.442-2.81-2.719-4.967-5.547-5.272l0,0
				c-4.063-0.379-7.555,2.923-7.329,6.998c0.1,1.783,0.345,3.893,0.826,6.339c1.874,9.55,5.107,55.417,5.132,55.429
				c-0.007,0.25-0.02,0.493-0.062,0.658c-0.205,0.784-0.524,1.125-0.774,1.468c-0.684,0.942-0.265,1.582,1.141,2.69
				c1.177,0.929,0.562,2.555,1.76,2.747c1.66,0.265,2.787,0.141,2.929-0.263c0.202-0.579-0.27-0.632-1.675-1.343
				c-1.074-0.544-1.204-3.878-1.216-5.172c-0.002-0.319,0.02-0.634,0.063-0.95L70.162,163.203z"/>
			<path fill="#FAB9AF" d="M56.104,165.177c2.658-7.816,7.286-32.815,6.354-39.87l-6.32-0.528c-3.192-0.144-6.083,1.887-7.007,4.945
				c-1.376,4.566-2.696,12.258-1.461,23.466c0,0,0.953,6.093,0,10.012c-0.864,3.558-5.841,25.695-6.748,29.737
				c-0.187,0.538-0.396,1.132-0.502,1.323c-0.391,0.709-0.693,0.896-1.019,1.168c-0.896,0.746-0.646,1.469,0.445,2.888
				c0.913,1.188-0.083,2.613,1.033,3.093c1.543,0.664,2.668,0.82,2.903,0.463c0.339-0.513-0.107-0.679-1.294-1.712
				c-0.466-0.406-0.424-1.827-0.269-3.134c0.17-1.433,0.599-2.821,1.238-4.114C46.037,187.712,53.894,171.68,56.104,165.177z"/>
			<path fill="#6469D4" d="M69.304,169.667c-7.305,1.896-15.014,1.9-23.127,0c0.697-3.062,1.254-5.477,1.493-6.464
				c0.953-3.919,0-10.012,0-10.012c-1.235-11.208,0.085-18.9,1.461-23.466c0.924-3.058,3.814-5.089,7.007-4.945l6.32,0.528
				c0.001,0.013,0.001,0.027,0.003,0.04l2.646,0.247c2.828,0.306,5.104,2.463,5.547,5.272c0.991,6.282,2.085,18.196-0.492,32.336
				L69.304,169.667z"/>
			<path fill="#5159BF" d="M50.368,152.549c-0.811,1.899-1.58,3.835-2.279,5.798c-0.044-2.755-0.419-5.157-0.419-5.157
				c-1.235-11.208,0.085-18.9,1.461-23.466c0.924-3.059,3.814-5.089,7.007-4.945l2.294,0.192l0,0h0.001l4.025,0.336
				c0.001,0.013,0.001,0.027,0.003,0.04l2.646,0.247c2.828,0.306,5.104,2.463,5.547,5.272c0.16,1.012,0.32,2.183,0.47,3.471
				C60.668,133.948,54.195,143.58,50.368,152.549z"/>
			<path fill="#B0B0FF" d="M74.618,84.989c0.959-4.898,1.935-17.663,1.935-17.663c-0.493-0.689-2.565-1.537-3.212-0.685
				l-4.037,17.463c-4.363,5.51-7.941,10.539-9.626,12.956c-0.651,0.937-1.685,1.531-2.821,1.63c-2.126,0.187-4.822,0.488-7.04,1.063
				c-10.76,2.784-6.345,6.755-6.345,6.755c1.323,1.312,2.419,2.841,3.215,4.541c1.378,2.941,3.148,6.711,4.188,8.929
				c0.432,1.404-0.854,5.543-1.311,6.939l-0.956,2.924c-0.143,0.437,0.083,0.911,0.517,1.06c4.848,1.677,14.607,1.929,20.85-0.061
				c0.699-0.223,1.031-1.021,0.685-1.668l-4.625-12.6c-1.227-2.659-0.999-3.303-0.131-4.868c0.472-0.854,0.622-1.883,0.342-2.897
				c-0.159-0.575-0.624-1.479-1.235-2.467c-0.884-1.432-0.769-3.27,0.298-4.572C68.877,97.409,73.721,89.559,74.618,84.989z"/>
			<path fill="#FAB9AF" d="M48.879,83.813c-3.219,0.895-3.783,3.521-2.667,7.779c0.419,1.595,1.568,2.97,2.424,3.814
				c0.635,0.628,0.997,1.48,0.983,2.372l-0.044,2.591c0.137,2.353,1.529,3.278,3.208,3.288c0.833,0.005,1.71-0.422,2.262-1.044
				c0.658-0.74,0.414-1.871,0.004-2.771l-0.372-0.632c-0.503-0.851-0.244-1.989,0.628-2.451c0.681-0.359,1.388-0.884,1.819-1.398
				c0.422-0.504,0.681-4.258-1.038-8.157C54.311,83.174,52.101,82.917,48.879,83.813z"/>
			<path fill="#FA968C" d="M56.185,92.109c0.205,0.443-0.052,0.964-0.528,1.071l0,0c-0.396,0.089-0.794-0.147-0.904-0.538
				l-0.716-3.177c-0.025-0.119-0.005-0.242,0.062-0.345c0.063-0.103,0.166-0.175,0.285-0.202c0.168-0.038,0.342,0.047,0.415,0.205
				L56.185,92.109z"/>
			<path fill="#FAB9AF" d="M47.925,91.851c0.272,0.983,0.595,2.225-0.27,2.464c-0.862,0.24-2.227-1.31-2.501-2.293
				c-0.272-0.983,0.216-1.378,1.078-1.619C47.096,90.163,47.652,90.868,47.925,91.851z"/>
			<path fill="#5046AF" d="M44.634,86.978c2.602-5.044,8.185-6.684,11.015-4.959c1.521,0.926,3.64,4.894,0.262,5.027
				c-0.846,0.033-1.62-0.255-2.312-0.698c-0.229-0.147-0.509-0.198-0.78-0.155l-2.198,0.757c-1.807,0.622-2.775,2.582-2.174,4.395
				l0.215,0.651c0.098,0.331-0.249,0.618-0.557,0.459l-0.13-0.243c-0.34-0.634-0.929-1.097-1.627-1.276
				C44.881,90.559,43.072,90.003,44.634,86.978z"/>
			<path fill="#FAB9AF" d="M49.7,147.487c-0.524-0.785-0.962-1.629-1.202-1.919c-0.1-0.12-0.466-0.361-0.566-0.439
				c-0.297-0.228-0.791-0.532-0.923-0.882l-0.575-1.462c-0.267-0.711-0.813-1.121-1.524-0.855l0,0
				c-0.77,0.289-0.872,1.077-0.497,1.809l0.387,1.03c0.3,0.585,0.308,1.25,0.348,1.907c0.082,1.337,0.919,2.639,1.688,3.621
				c0.483,0.616,1.533,0.71,2.938,0.758c0.69,0.023,1.767-0.146,1.113-0.721c-0.547-0.482-2.667-0.694-2.842-2.791
				c-0.01-0.103-0.013-0.369,0.104-0.417c0.352-0.144,0.711,0.619,1.023,0.938c0.439,0.449,0.898,0.525,1.108,0.382
				C50.501,148.293,50.074,148.047,49.7,147.487z"/>
			<path fill="#B0B0FF" d="M43.66,102.474c1.034-1.065,3.563-1.377,5.869-0.9c2.177,0.452-2.526,15.686-6.915,22.856
				c-0.474,0.774-0.619,1.704-0.374,2.577l4.673,16.554c-0.562,1.135-1.6,1.325-2.658,1.478l-7.866-17.284
				c-0.743-1.63-0.906-3.46-0.462-5.196C37.288,117.247,40.521,105.707,43.66,102.474z"/>
			<g>
				
					<rect x="80.451" y="29.522" transform="matrix(0.9829 0.1843 -0.1843 0.9829 10.5737 -14.1511)" fill="#FFFFFF" width="1.932" height="40.574"/>
				<path fill="#3E186D" d="M109.636,44.58c-8.184-5.294-18.836,2.576-26.824-3.759c-0.364-0.289-0.551-0.748-0.466-1.205
					l2.948-15.713c0.162-0.865,1.147-1.266,1.885-0.788c8.185,5.293,18.839-2.577,26.826,3.759c0.364,0.288,0.551,0.748,0.466,1.204
					c-0.983,5.238-1.965,10.476-2.948,15.713C111.36,44.656,110.375,45.058,109.636,44.58z"/>
				<path fill="#FFFFFF" d="M99.516,30.042l0.581,1.815c0.058,0.185,0.205,0.329,0.392,0.385l1.822,0.552
					c0.468,0.142,0.57,0.759,0.173,1.044l-1.546,1.111c-0.157,0.114-0.251,0.298-0.246,0.492l0.039,1.905
					c0.01,0.488-0.546,0.777-0.938,0.488l-1.537-1.127c-0.155-0.116-0.359-0.146-0.542-0.082l-1.8,0.625
					c-0.462,0.161-0.908-0.278-0.754-0.743l0.599-1.81c0.061-0.184,0.027-0.386-0.092-0.541l-1.15-1.519
					c-0.295-0.39-0.016-0.949,0.474-0.946l1.905,0.01c0.194,0.001,0.376-0.094,0.488-0.253l1.087-1.563
					C98.749,29.483,99.368,29.576,99.516,30.042z"/>
				<g>
					<path fill="#FFFFFF" d="M98.4,27.694L98.4,27.694c0.307,0,0.617,0.023,0.924,0.069c3.354,0.506,5.673,3.646,5.168,7
						c-0.45,2.985-3.062,5.236-6.074,5.236c-0.308,0-0.619-0.023-0.926-0.069c-1.625-0.245-3.057-1.107-4.033-2.429
						c-0.976-1.322-1.379-2.945-1.134-4.57C92.774,29.946,95.387,27.694,98.4,27.694 M98.4,26.964c-3.349,0-6.283,2.448-6.797,5.859
						c-0.566,3.758,2.022,7.264,5.78,7.829c0.348,0.052,0.692,0.078,1.034,0.078c3.348,0,6.282-2.447,6.796-5.857
						c0.565-3.758-2.023-7.264-5.781-7.831C99.086,26.99,98.741,26.964,98.4,26.964L98.4,26.964z"/>
				</g>
			</g>
			<path fill="#4A00E0" d="M219.929,204.726H3.905c-0.736,0-1.331-0.596-1.331-1.331l0,0c0-0.736,0.595-1.332,1.331-1.332h216.023
				c0.736,0,1.331,0.596,1.331,1.332l0,0C221.26,204.13,220.665,204.726,219.929,204.726z"/>
		</g>
	</g>
</g>
</svg>
