<?xml version="1.0" encoding="utf-8"?>
<!-- Generator: Adobe Illustrator 16.0.0, SVG Export Plug-In . SVG Version: 6.00 Build 0)  -->
<!DOCTYPE svg PUBLIC "-//W3C//DTD SVG 1.1//EN" "http://www.w3.org/Graphics/SVG/1.1/DTD/svg11.dtd">
<svg version="1.1" xmlns="http://www.w3.org/2000/svg" xmlns:xlink="http://www.w3.org/1999/xlink" x="0px" y="0px"
	 width="66.667px" height="80.667px" viewBox="0 0 66.667 80.667" enable-background="new 0 0 66.667 80.667" xml:space="preserve">
<g id="Background">
</g>
<g id="Objects">
	<g>
		<g>
			<path opacity="0.1" d="M24.663,71.354l8.671,8.45l8.671-8.45c12.332-3.72,21.316-15.164,21.316-28.71
				c0-16.562-13.426-29.987-29.987-29.987S3.347,26.082,3.347,42.644C3.347,56.189,12.33,67.634,24.663,71.354z"/>
			<path fill="#1B2F47" d="M63.321,30.852c0-16.562-13.426-29.987-29.987-29.987S3.347,14.29,3.347,30.852
				c0,13.546,8.983,24.989,21.316,28.709l8.671,8.45l8.671-8.45C54.337,55.841,63.321,44.397,63.321,30.852z"/>
		</g>
		<path fill="#FFFFFF" d="M23.694,30.804c0,0-4.231-2.891-4.453-7.285c-0.283-5.505,3.638-9.227,8.07-9.505
			c4.368-0.272,8.759,3.961,11.284,6.61c5.421,5.681,7.051,8.208,8.845,10.128c-1.788,1.926-3.396,4.457-8.795,10.164
			c-2.512,2.66-6.887,6.913-11.263,6.658c-4.43-0.26-8.358-3.961-8.109-9.466C19.477,33.711,23.694,30.804,23.694,30.804z"/>
	</g>
</g>
<g id="Designed_By_Freepik">
</g>
</svg>
