<?xml version="1.0" encoding="utf-8"?>
<!-- Generator: Adobe Illustrator 16.0.0, SVG Export Plug-In . SVG Version: 6.00 Build 0)  -->
<!DOCTYPE svg PUBLIC "-//W3C//DTD SVG 1.1//EN" "http://www.w3.org/Graphics/SVG/1.1/DTD/svg11.dtd">
<svg version="1.1" xmlns="http://www.w3.org/2000/svg" xmlns:xlink="http://www.w3.org/1999/xlink" x="0px" y="0px" width="71.5px"
	 height="32.927px" viewBox="0 0 71.5 32.927" enable-background="new 0 0 71.5 32.927" xml:space="preserve">
<g id="PRINT_1">
</g>
<g id="PRINT_2">
	<g display="none">
		<g display="inline">
			<path fill-rule="evenodd" clip-rule="evenodd" fill="#B2619D" d="M24.729,20.173c-2.769,0.348-5.489,1.199-8.298,1.137
				c-0.711,0.108-1.434-0.064-2.14,0.174l0.012-0.002c-0.277,0.055-0.545-0.158-0.827,0l0.017-0.002
				c-0.519,0-1.039,0.131-1.557,0.036c-0.143-0.001-0.286-0.004-0.43,0c-0.21-0.004-0.418-0.04-0.633-0.029
				c-0.145,0.01-0.288,0.01-0.433,0.002c-0.297-0.034-0.609-0.016-0.866-0.208c-0.109-0.121-0.185-0.264-0.225-0.426
				c0.058-1.423,1.061-1.167,1.958-1.312c2.257-0.364,4.551-0.105,6.786-0.728c0.164-0.05,0.332-0.075,0.5-0.084
				c0.761,0.24,1.443-0.2,2.158-0.354c0.729-0.386,1.523-0.303,2.289-0.42c0.763,0.223,1.578-0.225,2.331,0.102
				c0.133,0.18,0.249,0.49,0.474,0.045c0.672,0.491,1.428,0.638,2.252,0.521c0.817,0.363,1.434,0.954,1.892,1.724
				c0.675,1.311,1.105,1.22,0.135,1.6c-1.72,0.675,2.584,0.158,3.05,1.896c0.283,1.049,2.563,1.17,3.035,2.167
				c0.217,0.458,1.524,0.83,0.917,1.292c-0.824-0.087-3.11,0.015-3.333-0.635c-0.695-2.021-8.808-2.089-7.881-4.41
				C26.328,21.214,26.309,20.126,24.729,20.173z"/>
			<path fill-rule="evenodd" clip-rule="evenodd" fill="#605B75" d="M27.743,7.168c1.682-0.504,3.361-0.997,5.097-0.431
				c0.272,0.089,0.598,0.088,0.89,0.045c1.491-0.222,2.943-0.131,4.362,0.312c0.415-0.046,0.798,0.022,1.12,0.303
				c0.107,0.127,0.173,0.275,0.196,0.447c-0.026,0.083-0.052,0.164-0.078,0.248c-0.049,0.071-0.101,0.14-0.151,0.212
				c-0.242,0.261-0.513,0.479-0.818,0.651c-1.06,0.508-1.917-0.686-2.933-0.293c-1.752,0.677-3.64-0.314-5.371,0.74
				c-0.462,0.281-1.064,0.123-1.518-0.25C28.087,8.576,27.628,8.001,27.743,7.168z"/>
			<path fill-rule="evenodd" clip-rule="evenodd" fill="#5D5971" d="M27.743,7.168c0.343,0.55,0.891,0.998,0.819,1.765
				c-0.07,0.049-0.142,0.097-0.209,0.147c-1.122,0.484-1.815,1.18-1.43,2.545c0.129,0.46-0.244,0.95-0.162,1.446
				c0.31,1.254,1.817,1.84,1.697,3.338c-0.31,0.466-0.732,0.742-1.269,0.831c-0.177-0.012-0.32-0.087-0.431-0.229
				c-0.094-0.289-0.138-0.614-0.292-0.861c-1.176-1.891-1.76-3.875-1.427-6.241c0.26-1.841,0.1-1.903,1.825-2.539
				C27.146,7.269,27.45,7.234,27.743,7.168z"/>
			<path fill-rule="evenodd" clip-rule="evenodd" fill="#D3A7CA" d="M6.615,18.291c1.557,0.669,3.216,0.412,4.849,0.399
				c2.145-0.013,4.274-0.527,6.422-0.413c0.413,0.022,0.842-0.049,1.227,0.152c0.007,0.494-0.387,0.423-0.667,0.512l0.001,0
				c-2.166,0.504-4.377,0.467-6.56,0.663c-1.542,0.139-3.067,0.63-4.621,0.507c-0.078-0.019-0.156-0.04-0.233-0.056
				c-0.069-0.032-0.141-0.067-0.212-0.1c-0.247-0.157-0.482-0.34-0.791-0.383c-0.155,0.002-0.306-0.002-0.46,0
				c-0.633,0.235-1.408-0.74-1.942,0.323c-0.573-0.114-1.223-0.027-1.603-0.618l0,0c-0.378-1.646-0.081-2.009,1.478-1.867
				c0.862,0.076,1.566,0.539,2.335,0.841C6.093,18.294,6.348,18.357,6.615,18.291z"/>
			<path fill-rule="evenodd" clip-rule="evenodd" fill="#BB76A9" d="M35.904,25.503c-1.778-2.138-10.906,0.022-10.542-2.811
				c0.115-0.899,0.684-2.018-0.633-2.52c0.555-0.376,1.072-0.12,1.501,0.151c0.344,0.219,0.836,0.48,0.372,1.155
				c-0.299,0.437,1.588,0.479,1.269,0.966c-0.246,0.375,2.537,0.027,6.24,2.399"/>
			<path fill-rule="evenodd" clip-rule="evenodd" fill="#C58BB7" d="M3.791,19.78c0.017-0.403-0.366-0.588-0.605-1.024
				c1.135-0.149,1.937,0.625,2.898,0.519c0.249,0.857,1.007,0.941,1.69,1.127c0.636,0.171,1.287,0.29,1.817,0.719
				c0.106,0.051,0.215,0.102,0.324,0.15c0.275-0.099,0.533,0.131,0.809,0.009l0,0c0.275-0.096,0.537,0.113,0.813,0.008l0,0
				c0.427-0.079,0.727,0.096,0.932,0.461c-2.001,0.425-3.918,0.114-5.807-0.473C5.691,20.803,4.224,21.284,3.791,19.78z"/>
			<path fill-rule="evenodd" clip-rule="evenodd" fill="#BC7CAD" d="M26.759,17.013c0.125,0.045,0.249,0.089,0.372,0.132
				c0.266,0.187,0.383,0.478,0.506,0.765c0.117,0.282,0.26,0.56,0.229,0.888c-0.73,0.433-1.383,0.596-1.793-0.382
				c-0.063-0.152-0.307-0.067-0.462,0.027l0.007-0.002c-0.813-0.375-1.805,0.079-2.578-0.486
				C24.279,17.641,25.521,17.329,26.759,17.013z"/>
			<path fill-rule="evenodd" clip-rule="evenodd" fill="#E6D6E8" d="M6.116,18.444c-1.043-0.53-2.036-1.257-3.265-1.213
				c-0.726,0.028-1.048-0.354-1.069-0.91c-0.021-0.568,0.587-0.464,0.964-0.598c0.207-0.074,0.37-0.293,0.552-0.447
				c0.213,1.062,0.772,1.809,1.777,2.209c0.536,0.214,1.029,0.534,1.54,0.806C6.449,18.343,6.282,18.393,6.116,18.444z"/>
			<path fill-rule="evenodd" clip-rule="evenodd" fill="#DFC3DC" d="M3.791,19.78c0.712,0.97,2.033,0.771,2.871,1.496
				c-1.905,0.156-3.519-0.358-4.637-1.999C2.592,19.521,3.268,19.393,3.791,19.78z"/>
			<path fill-rule="evenodd" clip-rule="evenodd" fill="#B081B1" d="M39.695,7.096c0.331,0.149,0.662,0.299,0.995,0.449
				c0.3,0.161,0.603,0.324,0.905,0.484l0.007,0.168c-0.043,0.179-0.155,0.29-0.325,0.344c-0.168,0.013-0.333,0-0.495-0.04
				c-0.32-0.096-0.617-0.242-0.902-0.417c-0.216-0.135-0.367-0.342-0.542-0.522c-0.258-0.193-0.639-0.234-0.744-0.618
				C39.017,6.657,39.332,7.015,39.695,7.096z"/>
			<path fill-rule="evenodd" clip-rule="evenodd" fill="#B870A6" d="M18.445,18.941c0.223-0.17,0.444-0.341,0.667-0.512
				c0.544,0.037,1.093-0.273,1.639-0.054C20.037,18.837,19.373,19.555,18.445,18.941z"/>
			<path fill-rule="evenodd" clip-rule="evenodd" fill="#B870A6" d="M14.291,21.484c0.693-0.559,1.413-0.453,2.14-0.176
				C15.73,21.708,15.015,21.68,14.291,21.484z"/>
			<path fill-rule="evenodd" clip-rule="evenodd" fill="#B870A6" d="M12.468,21.75c-0.311-0.154-0.622-0.308-0.932-0.461
				c0.688-0.202,1.324-0.03,1.957,0.191C13.186,21.73,12.84,21.796,12.468,21.75z"/>
			<path fill-rule="evenodd" clip-rule="evenodd" fill="#81518C" d="M38.593,6.944c0.289,0.202,0.579,0.403,0.868,0.606
				c-0.052,0.07-0.105,0.139-0.157,0.208c-0.403-0.221-0.809-0.442-1.211-0.663C38.229,6.925,38.407,6.922,38.593,6.944z"/>
			<path fill-rule="evenodd" clip-rule="evenodd" fill="#B870A6" d="M13.476,21.481c0.284-0.239,0.558-0.164,0.827,0
				C14.021,21.693,13.747,21.623,13.476,21.481z"/>
			<path fill-rule="evenodd" clip-rule="evenodd" fill="#AE5094" d="M36.203,26.307l-0.609-0.438
				c-0.329-1.535-3.393,0.028-3.797-1.484c-0.502-1.877-5.152-1.578-3.257-2.208c0.592-0.199,1.674-0.336,1.196-1.542
				c0.288-0.14,0.563-0.1,0.833,0.029c0.299,0.244,0.635,0.476,0.292,0.951c-0.242,1.107,3.859-1.25,2.545-0.668
				c-0.375,1.556,2.389,4.019,3.25,5.719"/>
			<path fill-rule="evenodd" clip-rule="evenodd" fill="#994890" d="M30.394,20.947c-0.218-0.104-0.438-0.208-0.656-0.311
				c-0.473-0.774-1.241-1.233-1.872-1.838c-0.223-0.17-0.448-0.339-0.428-0.678c0.879-0.441,1.563,0.692,2.444,0.21
				c0.343-0.365,0.611-0.853,1.051-1.049c2.832-1.264,3.857-4.237,5.789-6.345c0.229-0.41,0.463-0.815,0.75-1.186
				c0.11-0.142,0.241-0.268,0.383-0.379c0.547-0.302,0.795-0.924,1.294-1.279l0.003-0.003c0.121-0.026,0.185-0.082,0.191-0.165
				c0.005-0.084-0.006-0.133-0.036-0.149l-0.004-0.019c0.059-0.063,0.111-0.135,0.157-0.209c0.234,0.077,0.466,0.155,0.7,0.231
				c0.031,0.543,0.823,0.737,0.575,1.412c-2.372,1.452-3.753,3.798-5.184,6.077c-0.661,1.053-1.445,1.995-2.188,2.979
				C32.173,18.911,31.978,20.744,30.394,20.947z"/>
			<path fill-rule="evenodd" clip-rule="evenodd" fill="#B870A6" d="M9.59,21.121c-1.239,0.187-2.285-0.433-3.389-0.769
				c-0.52-0.155-0.714-0.621-0.118-1.078l0.003-0.001c0.31-0.071,0.522,0.04,0.64,0.337l-0.001,0.002
				c0.041,0.176,0.15,0.229,0.316,0.172c3.799-0.373,7.591-0.903,11.404-0.843c-0.848,0.642-1.705,1.178-2.768,0.585
				c-0.124-0.069-0.354,0.08-0.525,0.064c-1.584-0.152-3.101,0.816-4.726,0.404C9.724,19.815,9.601,20.531,9.59,21.121z"/>
			<path fill-rule="evenodd" clip-rule="evenodd" fill="#B870A6" d="M11.536,21.288c-0.279,0.191-0.547,0.128-0.813-0.008
				C11.005,21.083,11.271,21.149,11.536,21.288z"/>
			<path fill-rule="evenodd" clip-rule="evenodd" fill="#B870A6" d="M10.724,21.28c-0.28,0.195-0.546,0.13-0.809-0.009
				C10.193,21.081,10.461,21.146,10.724,21.28z"/>
			<path fill-rule="evenodd" clip-rule="evenodd" fill="#BC7CAD" d="M25.61,18.443c0.031,0.048,0.098,0.125,0.089,0.138
				c-0.08,0.098-0.114,0.047-0.082-0.14L25.61,18.443z"/>
			<path fill-rule="evenodd" clip-rule="evenodd" fill="#706D83" d="M28.298,16.429c-0.367-1.261-1.509-1.987-2.008-3.158
				c0.288-1.029,1.184-1.827,0.9-3.102c-0.178-0.791,0.716-1.039,1.373-1.235l-0.001,0c0.894,0.255,1.749,0.373,2.396-0.61
				c0.252-0.384,0.62-0.354,0.956-0.172c0.852,0.459,1.691,0.954,2.551-0.076c0.932,0.326,2.071-0.325,2.87,0.437
				c0.427,0.409,0.761,0.101,1.141,0.075c0.071,0.454-0.141,0.775-0.496,1.023l-0.021-0.015c-0.466,0.106-0.639,0.547-0.933,0.854
				c-0.368,0.383-0.823,0.556-1.324,0.357c-1.39-0.554-3.125-0.766-4.615-0.599c-0.553,0.062-0.724,0.293-0.659,0.849
				c0.119,1.017,0.166,2.022-1.309,1.16c-0.102-0.061-0.146-0.023-0.111,0.131c0.141,0.634,0.106,1.334,1.034,1.452
				c1.423,0.179,1.767,1.049,1.119,2.379c-0.548,0.609-1.286,0.391-1.941,0.539C28.873,16.737,28.521,16.777,28.298,16.429z"/>
			<path fill-rule="evenodd" clip-rule="evenodd" fill="#81518C" d="M37.979,9.611c0.165-0.339,0.332-0.682,0.496-1.023
				c0.165-0.253,0.345-0.483,0.675-0.495C38.819,8.649,38.702,9.372,37.979,9.611z"/>
			<path fill-rule="evenodd" clip-rule="evenodd" fill="#81518C" d="M39.309,7.776c0.112,0.101,0.124,0.206,0.014,0.288
				c-0.041,0.031-0.111,0.019-0.169,0.026C39.192,7.979,39.245,7.875,39.309,7.776z"/>
			<path fill-rule="evenodd" clip-rule="evenodd" fill="#605B75" d="M28.563,8.933c-0.53,0.627-1.579,1.03-0.885,2.171
				c0.206,0.334,0.022,0.675-0.277,0.961c-0.393,0.377-0.742,0.8-1.111,1.205c-0.188-0.996,1.029-2.158-0.403-2.848
				c0.494-0.601,1.107-0.648,1.348-1.233C27.531,8.466,28.065,8.659,28.563,8.933z"/>
			<path fill-rule="evenodd" clip-rule="evenodd" fill="#83418C" d="M28.298,16.429c0.263,0.006,0.524,0.011,0.788,0.016
				c0.767,0.697,0.871,1.686,1.038,2.648c-1.125,0.29-1.769-0.706-2.686-0.972c-0.22-0.282-0.345-0.598-0.307-0.976
				C27.485,16.844,27.824,16.516,28.298,16.429z"/>
			<path fill-rule="evenodd" clip-rule="evenodd" fill="#C58BB7" d="M6.727,19.61c-0.214-0.112-0.428-0.224-0.64-0.337
				C6.481,19.04,6.688,19.161,6.727,19.61z"/>
			<path fill-rule="evenodd" clip-rule="evenodd" fill="#C58BB7" d="M7.042,19.785c-0.226,0.164-0.333,0.109-0.316-0.172
				C6.832,19.668,6.938,19.728,7.042,19.785z"/>
			<path fill-rule="evenodd" clip-rule="evenodd" fill="#B05B99" d="M52.612,3.612c1.142-0.345,2.175-0.864,2.883-1.921
				c-0.018-0.168,0.052-0.281,0.211-0.34c0.151,0.024,0.279,0.088,0.38,0.206c0.154,0.265,0.196,0.567,0.236,0.871
				c0.052,0.468,0.313,0.845,0.494,1.259c0.184,0.583,0.304,1.158-0.227,1.663c-4.509,1.119-9.179,1.525-13.437,3.735
				c-0.486,0.022-0.875-0.157-1.162-0.548c-0.028-0.089-0.056-0.176-0.082-0.265c1.232-0.788,2.437-1.609,3.937-1.774
				c0.571-0.064,1.2-0.262,1.522-0.904c1.543-0.828,3.286-1.006,4.859-1.736C52.528,4.075,52.681,4.033,52.612,3.612z"/>
			<path fill-rule="evenodd" clip-rule="evenodd" fill="#B05B99" d="M41.49,8.453c0.027-0.09,0.064-0.176,0.112-0.256
				c0.108,0.003,0.211,0.028,0.308,0.074l0.007,0.052C41.807,8.492,41.664,8.535,41.49,8.453z"/>
			<path fill-rule="evenodd" clip-rule="evenodd" fill="#A3458F" d="M41.49,8.453c0.141-0.044,0.285-0.087,0.428-0.131
				c0.421,0.2,0.843,0.399,1.266,0.597c0.198-0.018,0.316,0.072,0.355,0.271c-0.542,0.98-1.599,0.797-2.407,1.174
				c-0.65,0.306-1.358,0.486-2.019,1.054c0.809,0.676,1.624-0.009,2.321,0.162c2.144,0.523,4.339,0.658,6.54,0.811
				c1.001,0.07,1.271,1.203,0.358,1.885c-2.736,2.047-4.284,5.643-8.009,6.434c-1.037,0.22-1.881,1.144-2.623,2.023
				c-0.424,0.504-0.883,1.201-1.616,0.422c-0.067-0.271-0.026-0.533,0.075-0.792c0.677-1.169,1.623-2.043,2.795-2.657
				c2.308-1.211,4.302-2.868,6.265-4.701c-0.5-0.807-1.192-1.091-2.096-0.98c-0.479,0.06-0.962,0.079-1.444,0.009
				c-2.346-0.337-3.099,0.152-4.188,2.451c-0.604,1.271-0.979,2.695-2.106,3.671c-0.36,0.009-0.653-0.25-0.594-0.531
				c0.338-1.596-0.403-1.854-1.69-1.516c1.449-1.858,2.278-4.149,3.994-5.818c0.133-0.129,0.313-0.253,0.366-0.414
				c0.544-1.646,1.835-2.399,3.286-2.968c-0.067-0.296,0.027-0.487,0.34-0.535C41.22,8.4,41.355,8.428,41.49,8.453z"/>
			<path fill-rule="evenodd" clip-rule="evenodd" fill="#81518C" d="M41.085,8.374c-0.113,0.178-0.227,0.357-0.34,0.535
				c-0.463-0.224-0.952-0.431-0.583-1.128C40.471,7.977,40.778,8.175,41.085,8.374z"/>
			<path fill-rule="evenodd" clip-rule="evenodd" fill="#A6438E" d="M36.166,23.117c0.23,0.055,0.535,0.201,0.679-0.028
				c1.204-1.89,2.996-2.929,4.98-3.563c1.509-0.48,2.444-1.559,3.324-2.756c0.743-1.009,1.538-1.947,2.652-2.521
				c0.433-0.222,0.667-0.551,0.711-1.013c0.022-0.246-0.12-0.647-0.323-0.523c-0.954,0.58-1.84-0.741-2.851,0.112
				c-0.445,0.375-1.153,0.043-1.7-0.25c-1.029-0.552-2.111-0.804-3.286-0.355c-0.172,0.067-0.387,0.19-0.521,0.138
				c-0.523-0.211-1.345-0.053-1.493-0.73c-0.161-0.733,0.631-0.755,1.081-1.027c1.279-0.769,2.768-0.86,4.084-1.5
				c1.427-0.579,2.368,0.35,3.332,1.081c0.611,0.464,1.077,1.121,1.769,1.495c1.201,0.846,1.583,2.38,2.635,3.352
				c0.079,0.166,0.09,0.34,0.049,0.522c-0.142,0.347-0.477,0.618-0.553,0.961c-0.153,0.69-1.346,1.303-0.238,2.112
				c1.164,0.849,1.972,0.375,2.639-0.765c0.39-0.068,0.692,0.084,0.951,0.356c0.226,0.314,0.255,0.668,0.165,1.046
				c-0.32,1.129-1.014,1.941-1.965,2.611c-0.89,0.626-1.916,1.159-2.271,2.352c-0.035,0.114-0.137,0.283-0.221,0.284
				c-2.583-0.009-2.747,2.475-3.454,3.979c-0.861,1.835-2.147,2.738-3.723,3.544c-0.179,0.027-0.346-0.004-0.502-0.088
				c-0.97-1.716-0.861-3.083,0.373-4.665c0.12-0.117,0.253-0.224,0.386-0.326c0.599-0.433,0.249-1.037,0.314-1.567
				c0.251-1.84,0.526-3.675,1.648-5.319c-0.488,0.572-1.145,0.729-1.782,0.916c-2.574,0.75-4.833,1.967-6.203,4.512
				c-0.205,0.379-0.588,0.407-0.947,0.459c-0.894-0.646-1.789-1.281-2.269-2.362c-0.532-1.196-1.722-1.497-2.773-1.973
				c0-0.34-0.211-0.521-0.467-0.668c0.524-0.35,0.881-0.835,1.147-1.408c0.323-0.695,0.784-1.248,1.558-1.431
				c0.333-0.046,0.535-0.271,0.709-0.542c0.431-0.676,1.023-0.387,1.453-0.169c0.46,0.235,0.25,0.755,0.038,1.153
				c-0.292,0.539-0.386,1.056-0.002,1.562c0.33,0.854-0.046,1.632-0.326,2.418c-0.126,0.346-0.375,0.797-0.054,1.023
				C35.392,23.885,35.669,23.029,36.166,23.117z"/>
			<path fill-rule="evenodd" clip-rule="evenodd" fill="#AD4991" d="M54.023,19.276c0.008-0.278,0.015-0.555,0.021-0.833
				c1.584-0.95,0.785-2.307,0.578-3.456c-0.353-1.975,0.56-3.09,2.677-3.015c0.107,1.185,0.858,1.703,1.721,2.433
				c1.872,1.585,4.588,2.222,5.555,4.87l0.001,0c-0.022,0.396,0.223,0.833-0.203,1.17c-0.363,0.55-0.364,1.171-0.401,1.789
				c-0.063,1.036-0.575,1.637-1.551,2.065c-1.23,0.54-2.639,0.184-3.787,1.048c-0.161,0.12-0.438-0.1-0.595-0.299
				c-0.707-0.91-1.446-1.832-0.904-3.135c0.332-0.797-0.18-0.81-0.652-0.876c-0.577-0.081-0.755,0.302-0.727,0.795
				c0.021,0.363,0.188,0.719,0.181,1.08c-0.013,0.593-0.412,0.478-0.769,0.372c-0.317-0.124-0.531-0.36-0.687-0.659
				C54.172,21.539,54.182,20.392,54.023,19.276z"/>
			<path fill-rule="evenodd" clip-rule="evenodd" fill="#AA438E" d="M35.904,25.95c0.226-0.208,0.563-0.375,0.663-0.631
				c0.916-2.359,2.815-3.458,4.98-4.226c0.734-0.261,1.406-0.669,2.216-0.762c0.692-0.081,1.031-0.704,0.937-1.604
				c0.634,0.543,0.866,1.17,0.551,1.596c-1.188,1.597-1.137,3.572-1.865,5.296c-0.046,0.52,0.352,1.14-0.38,1.502
				c-1.51,0.828-1.479,2.645-2.417,3.839c-0.199-0.127-0.495-0.204-0.584-0.391C39.071,28.618,37.081,27.667,35.904,25.95z"/>
			<path fill-rule="evenodd" clip-rule="evenodd" fill="#A7438E" d="M42.186,31.787c-0.271,0.002-0.542,0.004-0.813,0.006
				c-0.343-0.195-0.755-0.323-0.784-0.832c-0.063-0.233-0.255-0.577-0.167-0.683c0.86-1.053,1.024-2.708,2.584-3.156
				C41.709,28.525,41.687,30.118,42.186,31.787z"/>
			<path fill-rule="evenodd" clip-rule="evenodd" fill="#AA438E" d="M64.373,20.446c0.039-0.395-0.012-0.8,0.203-1.17
				c0.329,0.409,0.368,0.853,0.114,1.336C64.583,20.556,64.479,20.5,64.373,20.446z"/>
			<path fill-rule="evenodd" clip-rule="evenodd" fill="#7B788E" d="M30.901,16.091c0.213-0.541,0.341-1.107-0.017-1.587
				c-0.346-0.463-0.84-0.268-1.329-0.167c-0.52,0.107-0.741-0.307-0.852-0.744c-0.197-0.79-0.23-1.57,0.279-2.289
				c0.362,0.098,0.261,0.39,0.333,0.589c0.088,0.24,0.22,0.477,0.492,0.412c0.361-0.084,0.426-0.425,0.397-0.742
				c-0.018-0.174-0.13-0.333-0.203-0.499c-0.294-0.676,0.227-1.53,0.926-1.429c0.739,0.109,1.489,0.841,2.124-0.255
				c1.08,1.182,2.372-0.791,3.477,0.113c0.058,0.762-0.772,0.398-1.023,0.897c0.577,0.311,1.039,0.187,1.396-0.363
				c0.272-0.42,0.576-0.645,1.056-0.433c-0.233,0.446-0.464,0.893-0.697,1.339c-0.839,1.08-1.806,2.018-2.919,2.795
				c-1.154,0.174-2.312,0.408-3.456,0.013c-0.23-0.037-0.002,0.342-0.024,0.095c-0.005-0.061,0.046-0.067,0.161-0.033
				c0.443,0.136,0.928,0.202,1.156,0.701c0.13,0.463,0.039,0.909-0.147,1.347C31.706,16.244,31.365,16.54,30.901,16.091z"/>
			<path fill-rule="evenodd" clip-rule="evenodd" fill="#925899" d="M30.901,16.091c0.369,0.047,0.692-0.063,0.973-0.324
				c0.062-0.463,0.439-0.713,0.685-1.052c0.498-0.476,0.991-0.96,1.685-1.113c1.005-0.889,2.011-1.778,3.017-2.667
				c-0.322,0.756-0.778,1.407-1.399,1.949c-0.611,0.533-1.144,1.151-1.434,1.923c-0.45,1.192-1.29,2.015-2.421,2.384
				c-1,0.327-1.453,1.064-1.882,1.903c-0.692-0.73-0.954-1.651-1.04-2.649C29.617,15.829,30.328,16.422,30.901,16.091z"/>
			<path fill-rule="evenodd" clip-rule="evenodd" fill="#7B788E" d="M36.665,8.756c0.035-0.035,0.087-0.103,0.103-0.095
				c0.045,0.023,0.076,0.074,0.113,0.113c-0.036,0.034-0.089,0.104-0.104,0.095C36.733,8.847,36.702,8.796,36.665,8.756z"/>
			<path fill-rule="evenodd" clip-rule="evenodd" fill="#98448F" d="M52.612,3.612c0.097,0.065,0.197,0.125,0.292,0.193
				c0.282,0.209,0.641,0.474,0.282,0.828c-0.214,0.209-0.551-0.077-0.746-0.294c-0.111-0.123-0.145-0.318-0.212-0.481
				C52.354,3.776,52.482,3.694,52.612,3.612z"/>
			<path fill-rule="evenodd" clip-rule="evenodd" fill="#AD4991" d="M48.43,12.098c-0.614-0.248-1.096-0.669-1.508-1.182
				c-0.879-1.098-2.114-1.523-3.418-1.817c-0.107-0.06-0.213-0.119-0.32-0.18c1.292-1.099,2.862-1.608,4.395-2.072
				c0.911-0.275,1.866-0.472,2.792-0.756c0.348-0.106,0.878-0.394,1.02-0.26c0.984,0.923,1.765,0,2.461-0.423
				c0.937-0.574,1.745-0.55,2.628-0.147c0.045,0.117,0.104,0.272,0.038,0.354c-0.759,0.959-1.188,1.87-0.027,2.809
				c0.246,0.198,0.163,0.692-0.068,1.038c-1.458,0.625-2.907,1.012-4.529,1.088C50.759,10.602,49.365,11.028,48.43,12.098z"/>
			<path fill-rule="evenodd" clip-rule="evenodd" fill="#AD438F" d="M56.324,9.431c-0.025-0.771-0.104-1.409-1.084-1.573
				c-0.653-0.109-0.718-0.743-0.206-1.23c0.479-0.457,1.215-0.625,1.446-1.367c0.352-0.561-0.004-1.122,0.065-1.683
				C56.381,3.18,56.096,2.847,55.98,2.42c0.001-0.267,0.003-0.536,0.005-0.805c0.279-0.102,0.521-0.022,0.753,0.125
				c0.472,0.387,0.984,0.744,1.126,1.413c0.084,0.494,0,0.987-0.089,1.479c-0.779,4.28,1.43,9.126,5.059,11.121
				c0.335,0.183,0.704,0.116,1.053,0.186c0.661,1.003,0.374,2.247,0.688,3.337c-1.075-1.112-2.177-2.178-3.638-2.785
				c-0.361-0.151-0.632-0.522-0.926-0.812c-0.545-0.538-1.043-1.022-1.9-1.176c-1.283-0.232-1.354-0.574-1-2.035
				c0.04-0.163-0.04-0.355-0.064-0.533C56.403,11.236,55.7,10.558,56.324,9.431z"/>
			<path fill-rule="evenodd" clip-rule="evenodd" fill="#A2418D" d="M55.98,2.42c0.427,0.256,0.616,0.642,0.564,1.157
				C56.09,3.337,55.866,2.971,55.98,2.42z"/>
			<path fill-rule="evenodd" clip-rule="evenodd" fill="#9C4B92" d="M34.406,22.612c0.541-0.751,0.437-1.72,0.891-2.501
				c0.415-1.418,1.369-2.584,1.853-3.994c0.306-0.891,0.992-1.729,1.683-2.401c0.566-0.548,1.443-0.875,2.179-0.359
				c0.669,0.472,1.416,0.363,2.053,0.226c1.016-0.22,1.626-0.099,2.295,0.788c0.255,0.338,0.488,0.374,0.242,0.81
				c-0.19,0.336-0.468,0.57-0.75,0.817c-1.646,1.451-3.315,2.877-5.264,3.864c-1.233,0.625-2.262,1.453-3.073,2.587
				C35.821,22.766,35.16,23.937,34.406,22.612z"/>
			<path fill-rule="evenodd" clip-rule="evenodd" fill="#9F428E" d="M34.406,22.612c0.729,0.687,1.401-0.233,2.109-0.164
				c-0.116,0.222-0.232,0.445-0.349,0.668c-0.069,0.102-0.124,0.273-0.211,0.297c-0.577,0.15-0.275,1.351-1.024,1.066
				C34.162,24.187,34.088,23.401,34.406,22.612z"/>
			<path fill-rule="evenodd" clip-rule="evenodd" fill="#AC4790" d="M60.936,7.598c-0.019,0.907,0.439,1.705,0.448,2.623
				c0.006,0.674,0.492,1.169,1.031,1.546c0.433,0.824,0.705,1.733,1.286,2.484c0.362,0.466,0.495,1.068,0.186,1.688
				c-0.558,0.719-1.074,1.047-1.633,0.03c-0.424-0.769-1.342-0.929-1.953-1.577c-1.177-1.258-1.998-2.624-2.363-4.303
				c-0.11-0.51-0.368-0.892-0.626-1.293c-0.596-0.927-0.656-1.946-0.291-2.985c0.292-0.836,0.441-1.679,0.503-2.545
				c0.896-0.214,1.525,0.118,1.909,0.937c-0.162,0.725-1.165,0.898-1.131,1.763c0.027,0.672-0.617,1.454,0.193,1.991
				c0.81,0.538,1.448,0.088,2.026-0.542C60.704,7.376,60.841,7.442,60.936,7.598z"/>
			<path fill-rule="evenodd" clip-rule="evenodd" fill="#AD4D93" d="M56.324,9.431c-0.171,0.974,0.802,1.561,0.722,2.504
				c-0.442,0.214-0.91,0.383-1.318,0.655c-0.83,0.549-1.003,1.372-0.433,2.271c0.233,0.364,0.263,0.659,0.084,1.016
				c-0.21,0.418-0.212,0.778-0.029,1.226c0.499,1.237,0.418,1.326-0.965,1.448c-0.11,0.011-0.225-0.069-0.34-0.107
				c-0.315-0.167-0.633-0.333-0.949-0.499c-0.018-0.176,0.021-0.335,0.124-0.482c0.88-1.76,0.803-2.175-0.533-2.887
				c-0.542,0.098-0.902,0.622-1.451,0.694c-0.76-0.335-1.367-0.761-1.637-1.67c-0.18-0.597-0.606-1.145-1.169-1.501
				c0.061-0.427-0.463-0.541-0.454-0.938c0.258-0.261,0.55-0.225,0.84-0.137c0.429,0.132,0.829-0.115,1.236-0.139
				c0.823-0.048,0.731-1.653,1.577-1.162c0.637,0.37,1.19,0.272,1.803,0.326c0.455,0.041,0.811-0.096,1.187-0.342
				C55.146,9.361,55.708,9.127,56.324,9.431z"/>
			<path fill-rule="evenodd" clip-rule="evenodd" fill="#9E428E" d="M53.246,17.615c-0.052,0.109-0.102,0.218-0.15,0.33
				c-0.024,0.448,0.535,1.215-0.039,1.265c-0.778,0.067-1.594,0.99-2.306,0.248c-0.417-0.437-0.808-0.729-1.457-0.665
				c0.629-1.139,0.478-2.574,1.783-3.194c0.148-0.063,0.279-0.037,0.398,0.063c0.143,0.169,0.251,0.362,0.37,0.546
				c0.185,0.232,0.422,0.4,0.675,0.549c0.136,0.074,0.262,0.16,0.384,0.255C53.087,17.173,53.225,17.358,53.246,17.615z"/>
			<path fill-rule="evenodd" clip-rule="evenodd" fill="#AE5496" d="M51.391,15.764l-0.157-0.081L51.078,15.6
				c0.053-0.11,0.105-0.219,0.158-0.331c0.273-0.584,0.628-1.05,1.339-1.001c0.021,0.086,0.042,0.174,0.063,0.26
				C52.511,15.247,52.084,15.648,51.391,15.764z"/>
			<path fill-rule="evenodd" clip-rule="evenodd" fill="#A7438E" d="M43.006,27.122c0.126-0.502,0.253-1.002,0.38-1.502
				c0.131,0.328,0.325,0.642,0.379,0.987C43.872,27.29,43.472,27.286,43.006,27.122z"/>
			<path fill-rule="evenodd" clip-rule="evenodd" fill="#868399" d="M34.244,13.602c-0.434,0.536-0.855,1.084-1.522,1.336
				c-0.33,0.115-0.429-0.209-0.631-0.335c-0.628-0.329-1.255-0.657-1.883-0.985C31.568,13.804,32.94,13.032,34.244,13.602z"/>
			<path fill-rule="evenodd" clip-rule="evenodd" fill="#706D83" d="M32.091,14.604c0.402-0.252,0.436,0.195,0.631,0.335
				c-0.18,0.387-0.528,0.591-0.848,0.829C31.641,15.33,31.913,14.974,32.091,14.604z"/>
			<path fill-rule="evenodd" clip-rule="evenodd" fill="#9F448F" d="M61.393-0.25c0.049,0.168,0.097,0.333,0.144,0.5
				C61.489,0.084,61.441-0.082,61.393-0.25z"/>
			<path fill-rule="evenodd" clip-rule="evenodd" fill="#995396" d="M36.845,17.941c1.293-2.504,3.306-3.271,5.8-2.681
				c-1.323,2.298-3.355,3.929-5.567,5.361c-0.255-1.34,1.016-1.772,1.563-2.65C38.042,17.858,37.41,18.479,36.845,17.941z"/>
			<path fill-rule="evenodd" clip-rule="evenodd" fill="#807291" d="M36.845,17.941c0.869-0.233,1.738-0.465,2.879-0.772
				c-0.683,1.545-2.188,2.105-2.646,3.453c-0.425,0.618-1.032,0.979-1.771,1.459C35.368,20.403,36.2,19.206,36.845,17.941z"/>
			<path fill-rule="evenodd" clip-rule="evenodd" fill="#AE5396" d="M59.271,4.583c0.275,1.04,0.636,2.038,1.345,2.853
				c-0.294,0.439,0.021,1.208-0.693,1.396c-0.843,0.223-1.414-0.516-2.165-0.669c-0.234-0.048-0.106-0.412-0.094-0.65
				c0.049-0.86,0.218-1.693,0.42-2.537C58.318,3.999,58.788,4.389,59.271,4.583z"/>
			<path fill-rule="evenodd" clip-rule="evenodd" fill="#AE5496" d="M53.246,17.615c-0.203-0.12-0.407-0.238-0.612-0.355
				c-0.172-0.985,0.511-2.021-0.057-2.984l-0.002-0.007c0.24-0.327,0.47-0.56,0.867-0.202c0.825,0.744,1.102,2.522,0.474,3.518
				C53.777,17.805,53.474,17.684,53.246,17.615z"/>
			<path fill-rule="evenodd" clip-rule="evenodd" fill="#B1619D" d="M52.577,14.275c0.961,0.417,1.12,1.095,0.568,2.018
				c-0.187,0.313-0.342,0.644-0.511,0.966c-0.106-0.063-0.213-0.124-0.32-0.184c-0.115-0.414-0.678-0.368-0.781-0.795
				c-0.048-0.172-0.095-0.344-0.142-0.517C51.719,15.213,52.354,14.916,52.577,14.275z"/>
			<path fill-rule="evenodd" clip-rule="evenodd" fill="#AE5496" d="M51.533,16.281c0.336,0.187,0.737,0.308,0.781,0.795
				C51.959,16.908,51.559,16.789,51.533,16.281z"/>
		</g>
		<g display="inline">
			<text transform="matrix(1 0 0 1 4.1978 19.625)" fill="#373537" font-family="'Quicksand-Bold'" font-size="12">Web</text>
		</g>
		<g display="inline">
			<text transform="matrix(1 0 0 1 32.2266 23.2295)" fill="#3D3B3C" font-family="'Selima'" font-size="28">Arts</text>
		</g>
	</g>
	<g>
		<g>
			<path fill-rule="evenodd" clip-rule="evenodd" fill="#B2619D" d="M24.729,20.173c-2.769,0.348-5.489,1.199-8.298,1.137
				c-0.711,0.108-1.434-0.064-2.14,0.174l0.012-0.002c-0.277,0.055-0.545-0.158-0.827,0l0.017-0.002
				c-0.519,0-1.039,0.131-1.557,0.036c-0.143-0.001-0.286-0.004-0.43,0c-0.21-0.004-0.418-0.04-0.633-0.029
				c-0.145,0.01-0.288,0.01-0.433,0.002c-0.297-0.034-0.609-0.016-0.866-0.208c-0.109-0.121-0.185-0.264-0.225-0.426
				c0.058-1.423,1.061-1.167,1.958-1.312c2.257-0.364,4.551-0.105,6.786-0.728c0.164-0.05,0.332-0.075,0.5-0.084
				c0.761,0.24,1.443-0.2,2.158-0.354c0.729-0.386,1.523-0.303,2.289-0.42c0.763,0.223,1.578-0.225,2.331,0.102
				c0.133,0.18,0.249,0.49,0.474,0.045c0.672,0.491,1.428,0.638,2.252,0.521c0.817,0.363,1.434,0.954,1.892,1.724
				c0.675,1.311,1.105,1.22,0.135,1.6c-1.72,0.675,2.584,0.158,3.05,1.896c0.283,1.049,2.563,1.17,3.035,2.167
				c0.217,0.458,1.524,0.83,0.917,1.292c-0.824-0.087-3.11,0.015-3.333-0.635c-0.695-2.021-8.808-2.089-7.881-4.41
				C26.328,21.214,26.309,20.126,24.729,20.173z"/>
			<path fill-rule="evenodd" clip-rule="evenodd" fill="#605B75" d="M27.743,7.168c1.682-0.504,3.361-0.997,5.097-0.431
				c0.272,0.089,0.598,0.088,0.89,0.045c1.491-0.222,2.943-0.131,4.362,0.312c0.415-0.046,0.798,0.022,1.12,0.303
				c0.107,0.127,0.173,0.275,0.196,0.447c-0.026,0.083-0.052,0.164-0.078,0.248c-0.049,0.071-0.101,0.14-0.151,0.212
				c-0.242,0.261-0.513,0.479-0.818,0.651c-1.06,0.508-1.917-0.686-2.933-0.293c-1.752,0.677-3.64-0.314-5.371,0.74
				c-0.462,0.281-1.064,0.123-1.518-0.25C28.087,8.576,27.628,8.001,27.743,7.168z"/>
			<path fill-rule="evenodd" clip-rule="evenodd" fill="#5D5971" d="M27.743,7.168c0.343,0.55,0.891,0.998,0.819,1.765
				c-0.07,0.049-0.142,0.097-0.209,0.147c-1.122,0.484-1.815,1.18-1.43,2.545c0.129,0.46-0.244,0.95-0.162,1.446
				c0.31,1.254,1.817,1.84,1.697,3.338c-0.31,0.466-0.732,0.742-1.269,0.831c-0.177-0.012-0.32-0.087-0.431-0.229
				c-0.094-0.289-0.138-0.614-0.292-0.861c-1.176-1.891-1.76-3.875-1.427-6.241c0.26-1.841,0.1-1.903,1.825-2.539
				C27.146,7.269,27.45,7.234,27.743,7.168z"/>
			<path fill-rule="evenodd" clip-rule="evenodd" fill="#D3A7CA" d="M6.615,18.291c1.557,0.669,3.216,0.412,4.849,0.399
				c2.145-0.013,4.274-0.527,6.422-0.413c0.413,0.022,0.842-0.049,1.227,0.152c0.007,0.494-0.387,0.423-0.667,0.512l0.001,0
				c-2.166,0.504-4.377,0.467-6.56,0.663c-1.542,0.139-3.067,0.63-4.621,0.507c-0.078-0.019-0.156-0.04-0.233-0.056
				c-0.069-0.032-0.141-0.067-0.212-0.1c-0.247-0.157-0.482-0.34-0.791-0.383c-0.155,0.002-0.306-0.002-0.46,0
				c-0.633,0.235-1.408-0.74-1.942,0.323c-0.573-0.114-1.223-0.027-1.603-0.618l0,0c-0.378-1.646-0.081-2.009,1.478-1.867
				c0.862,0.076,1.566,0.539,2.335,0.841C6.093,18.294,6.348,18.357,6.615,18.291z"/>
			<path fill-rule="evenodd" clip-rule="evenodd" fill="#BB76A9" d="M35.904,25.503c-1.778-2.138-10.906,0.022-10.542-2.811
				c0.115-0.899,0.684-2.018-0.633-2.52c0.555-0.376,1.072-0.12,1.501,0.151c0.344,0.219,0.836,0.48,0.372,1.155
				c-0.299,0.437,1.588,0.479,1.269,0.966c-0.246,0.375,2.537,0.027,6.24,2.399"/>
			<path fill-rule="evenodd" clip-rule="evenodd" fill="#C58BB7" d="M3.791,19.78c0.017-0.403-0.366-0.588-0.605-1.024
				c1.135-0.149,1.937,0.625,2.898,0.519c0.249,0.857,1.007,0.941,1.69,1.127c0.636,0.171,1.287,0.29,1.817,0.719
				c0.106,0.051,0.215,0.102,0.324,0.15c0.275-0.099,0.533,0.131,0.809,0.009l0,0c0.275-0.096,0.537,0.113,0.813,0.008l0,0
				c0.427-0.079,0.727,0.096,0.932,0.461c-2.001,0.425-3.918,0.114-5.807-0.473C5.691,20.803,4.224,21.284,3.791,19.78z"/>
			<path fill-rule="evenodd" clip-rule="evenodd" fill="#BC7CAD" d="M26.759,17.013c0.125,0.045,0.249,0.089,0.372,0.132
				c0.266,0.187,0.383,0.478,0.506,0.765c0.117,0.282,0.26,0.56,0.229,0.888c-0.73,0.433-1.383,0.596-1.793-0.382
				c-0.063-0.152-0.307-0.067-0.462,0.027l0.007-0.002c-0.813-0.375-1.805,0.079-2.578-0.486
				C24.279,17.641,25.521,17.329,26.759,17.013z"/>
			<path fill-rule="evenodd" clip-rule="evenodd" fill="#E6D6E8" d="M6.116,18.444c-1.043-0.53-2.036-1.257-3.265-1.213
				c-0.726,0.028-1.048-0.354-1.069-0.91c-0.021-0.568,0.587-0.464,0.964-0.598c0.207-0.074,0.37-0.293,0.552-0.447
				c0.213,1.062,0.772,1.809,1.777,2.209c0.536,0.214,1.029,0.534,1.54,0.806C6.449,18.343,6.282,18.393,6.116,18.444z"/>
			<path fill-rule="evenodd" clip-rule="evenodd" fill="#DFC3DC" d="M3.791,19.78c0.712,0.97,2.033,0.771,2.871,1.496
				c-1.905,0.156-3.519-0.358-4.637-1.999C2.592,19.521,3.268,19.393,3.791,19.78z"/>
			<path fill-rule="evenodd" clip-rule="evenodd" fill="#B081B1" d="M39.695,7.096c0.331,0.149,0.662,0.299,0.995,0.449
				c0.3,0.161,0.603,0.324,0.905,0.484l0.007,0.168c-0.043,0.179-0.155,0.29-0.325,0.344c-0.168,0.013-0.333,0-0.495-0.04
				c-0.32-0.096-0.617-0.242-0.902-0.417c-0.216-0.135-0.367-0.342-0.542-0.522c-0.258-0.193-0.639-0.234-0.744-0.618
				C39.017,6.657,39.332,7.015,39.695,7.096z"/>
			<path fill-rule="evenodd" clip-rule="evenodd" fill="#B870A6" d="M18.445,18.941c0.223-0.17,0.444-0.341,0.667-0.512
				c0.544,0.037,1.093-0.273,1.639-0.054C20.037,18.837,19.373,19.555,18.445,18.941z"/>
			<path fill-rule="evenodd" clip-rule="evenodd" fill="#B870A6" d="M14.291,21.484c0.693-0.559,1.413-0.453,2.14-0.176
				C15.73,21.708,15.015,21.68,14.291,21.484z"/>
			<path fill-rule="evenodd" clip-rule="evenodd" fill="#B870A6" d="M12.468,21.75c-0.311-0.154-0.622-0.308-0.932-0.461
				c0.688-0.202,1.324-0.03,1.957,0.191C13.186,21.73,12.84,21.796,12.468,21.75z"/>
			<path fill-rule="evenodd" clip-rule="evenodd" fill="#81518C" d="M38.593,6.944c0.289,0.202,0.579,0.403,0.868,0.606
				c-0.052,0.07-0.105,0.139-0.157,0.208c-0.403-0.221-0.809-0.442-1.211-0.663C38.229,6.925,38.407,6.922,38.593,6.944z"/>
			<path fill-rule="evenodd" clip-rule="evenodd" fill="#B870A6" d="M13.476,21.481c0.284-0.239,0.558-0.164,0.827,0
				C14.021,21.693,13.747,21.623,13.476,21.481z"/>
			<path fill-rule="evenodd" clip-rule="evenodd" fill="#AE5094" d="M36.203,26.307l-0.609-0.438
				c-0.329-1.535-3.393,0.028-3.797-1.484c-0.502-1.877-5.152-1.578-3.257-2.208c0.592-0.199,1.674-0.336,1.196-1.542
				c0.288-0.14,0.563-0.1,0.833,0.029c0.299,0.244,0.635,0.476,0.292,0.951c-0.242,1.107,3.859-1.25,2.545-0.668
				c-0.375,1.556,2.389,4.019,3.25,5.719"/>
			<path fill-rule="evenodd" clip-rule="evenodd" fill="#994890" d="M30.394,20.947c-0.218-0.104-0.438-0.208-0.656-0.311
				c-0.473-0.774-1.241-1.233-1.872-1.838c-0.223-0.17-0.448-0.339-0.428-0.678c0.879-0.441,1.563,0.692,2.444,0.21
				c0.343-0.365,0.611-0.853,1.051-1.049c2.832-1.264,3.857-4.237,5.789-6.345c0.229-0.41,0.463-0.815,0.75-1.186
				c0.11-0.142,0.241-0.268,0.383-0.379c0.547-0.302,0.795-0.924,1.294-1.279l0.003-0.003c0.121-0.026,0.185-0.082,0.191-0.165
				c0.005-0.084-0.006-0.133-0.036-0.149l-0.004-0.019c0.059-0.063,0.111-0.135,0.157-0.209c0.234,0.077,0.466,0.155,0.7,0.231
				c0.031,0.543,0.823,0.737,0.575,1.412c-2.372,1.452-3.753,3.798-5.184,6.077c-0.661,1.053-1.445,1.995-2.188,2.979
				C32.173,18.911,31.978,20.744,30.394,20.947z"/>
			<path fill-rule="evenodd" clip-rule="evenodd" fill="#B870A6" d="M9.59,21.121c-1.239,0.187-2.285-0.433-3.389-0.769
				c-0.52-0.155-0.714-0.621-0.118-1.078l0.003-0.001c0.31-0.071,0.522,0.04,0.64,0.337l-0.001,0.002
				c0.041,0.176,0.15,0.229,0.316,0.172c3.799-0.373,7.591-0.903,11.404-0.843c-0.848,0.642-1.705,1.178-2.768,0.585
				c-0.124-0.069-0.354,0.08-0.525,0.064c-1.584-0.152-3.101,0.816-4.726,0.404C9.724,19.815,9.601,20.531,9.59,21.121z"/>
			<path fill-rule="evenodd" clip-rule="evenodd" fill="#B870A6" d="M11.536,21.288c-0.279,0.191-0.547,0.128-0.813-0.008
				C11.005,21.083,11.271,21.149,11.536,21.288z"/>
			<path fill-rule="evenodd" clip-rule="evenodd" fill="#B870A6" d="M10.724,21.28c-0.28,0.195-0.546,0.13-0.809-0.009
				C10.193,21.081,10.461,21.146,10.724,21.28z"/>
			<path fill-rule="evenodd" clip-rule="evenodd" fill="#BC7CAD" d="M25.61,18.443c0.031,0.048,0.098,0.125,0.089,0.138
				c-0.08,0.098-0.114,0.047-0.082-0.14L25.61,18.443z"/>
			<path fill-rule="evenodd" clip-rule="evenodd" fill="#706D83" d="M28.298,16.429c-0.367-1.261-1.509-1.987-2.008-3.158
				c0.288-1.029,1.184-1.827,0.9-3.102c-0.178-0.791,0.716-1.039,1.373-1.235l-0.001,0c0.894,0.255,1.749,0.373,2.396-0.61
				c0.252-0.384,0.62-0.354,0.956-0.172c0.852,0.459,1.691,0.954,2.551-0.076c0.932,0.326,2.071-0.325,2.87,0.437
				c0.427,0.409,0.761,0.101,1.141,0.075c0.071,0.454-0.141,0.775-0.496,1.023l-0.021-0.015c-0.466,0.106-0.639,0.547-0.933,0.854
				c-0.368,0.383-0.823,0.556-1.324,0.357c-1.39-0.554-3.125-0.766-4.615-0.599c-0.553,0.062-0.724,0.293-0.659,0.849
				c0.119,1.017,0.166,2.022-1.309,1.16c-0.102-0.061-0.146-0.023-0.111,0.131c0.141,0.634,0.106,1.334,1.034,1.452
				c1.423,0.179,1.767,1.049,1.119,2.379c-0.548,0.609-1.286,0.391-1.941,0.539C28.873,16.737,28.521,16.777,28.298,16.429z"/>
			<path fill-rule="evenodd" clip-rule="evenodd" fill="#81518C" d="M37.979,9.611c0.165-0.339,0.332-0.682,0.496-1.023
				c0.165-0.253,0.345-0.483,0.675-0.495C38.819,8.649,38.702,9.372,37.979,9.611z"/>
			<path fill-rule="evenodd" clip-rule="evenodd" fill="#81518C" d="M39.309,7.776c0.112,0.101,0.124,0.206,0.014,0.288
				c-0.041,0.031-0.111,0.019-0.169,0.026C39.192,7.979,39.245,7.875,39.309,7.776z"/>
			<path fill-rule="evenodd" clip-rule="evenodd" fill="#605B75" d="M28.563,8.933c-0.53,0.627-1.579,1.03-0.885,2.171
				c0.206,0.334,0.022,0.675-0.277,0.961c-0.393,0.377-0.742,0.8-1.111,1.205c-0.188-0.996,1.029-2.158-0.403-2.848
				c0.494-0.601,1.107-0.648,1.348-1.233C27.531,8.466,28.065,8.659,28.563,8.933z"/>
			<path fill-rule="evenodd" clip-rule="evenodd" fill="#83418C" d="M28.298,16.429c0.263,0.006,0.524,0.011,0.788,0.016
				c0.767,0.697,0.871,1.686,1.038,2.648c-1.125,0.29-1.769-0.706-2.686-0.972c-0.22-0.282-0.345-0.598-0.307-0.976
				C27.485,16.844,27.824,16.516,28.298,16.429z"/>
			<path fill-rule="evenodd" clip-rule="evenodd" fill="#C58BB7" d="M6.727,19.61c-0.214-0.112-0.428-0.224-0.64-0.337
				C6.481,19.04,6.688,19.161,6.727,19.61z"/>
			<path fill-rule="evenodd" clip-rule="evenodd" fill="#C58BB7" d="M7.042,19.785c-0.226,0.164-0.333,0.109-0.316-0.172
				C6.832,19.668,6.938,19.728,7.042,19.785z"/>
			<path fill-rule="evenodd" clip-rule="evenodd" fill="#B05B99" d="M52.612,3.612c1.142-0.345,2.175-0.864,2.883-1.921
				c-0.018-0.168,0.052-0.281,0.211-0.34c0.151,0.024,0.279,0.088,0.38,0.206c0.154,0.265,0.196,0.567,0.236,0.871
				c0.052,0.468,0.313,0.845,0.494,1.259c0.184,0.583,0.304,1.158-0.227,1.663c-4.509,1.119-9.179,1.525-13.437,3.735
				c-0.486,0.022-0.875-0.157-1.162-0.548c-0.028-0.089-0.056-0.176-0.082-0.265c1.232-0.788,2.437-1.609,3.937-1.774
				c0.571-0.064,1.2-0.262,1.522-0.904c1.543-0.828,3.286-1.006,4.859-1.736C52.528,4.075,52.681,4.033,52.612,3.612z"/>
			<path fill-rule="evenodd" clip-rule="evenodd" fill="#B05B99" d="M41.49,8.453c0.027-0.09,0.064-0.176,0.112-0.256
				c0.108,0.003,0.211,0.028,0.308,0.074l0.007,0.052C41.807,8.492,41.664,8.535,41.49,8.453z"/>
			<path fill-rule="evenodd" clip-rule="evenodd" fill="#A3458F" d="M41.49,8.453c0.141-0.044,0.285-0.087,0.428-0.131
				c0.421,0.2,0.843,0.399,1.266,0.597c0.198-0.018,0.316,0.072,0.355,0.271c-0.542,0.98-1.599,0.797-2.407,1.174
				c-0.65,0.306-1.358,0.486-2.019,1.054c0.809,0.676,1.624-0.009,2.321,0.162c2.144,0.523,4.339,0.658,6.54,0.811
				c1.001,0.07,1.271,1.203,0.358,1.885c-2.736,2.047-4.284,5.643-8.009,6.434c-1.037,0.22-1.881,1.144-2.623,2.023
				c-0.424,0.504-0.883,1.201-1.616,0.422c-0.067-0.271-0.026-0.533,0.075-0.792c0.677-1.169,1.623-2.043,2.795-2.657
				c2.308-1.211,4.302-2.868,6.265-4.701c-0.5-0.807-1.192-1.091-2.096-0.98c-0.479,0.06-0.962,0.079-1.444,0.009
				c-2.346-0.337-3.099,0.152-4.188,2.451c-0.604,1.271-0.979,2.695-2.106,3.671c-0.36,0.009-0.653-0.25-0.594-0.531
				c0.338-1.596-0.403-1.854-1.69-1.516c1.449-1.858,2.278-4.149,3.994-5.818c0.133-0.129,0.313-0.253,0.366-0.414
				c0.544-1.646,1.835-2.399,3.286-2.968c-0.067-0.296,0.027-0.487,0.34-0.535C41.22,8.4,41.355,8.428,41.49,8.453z"/>
			<path fill-rule="evenodd" clip-rule="evenodd" fill="#81518C" d="M41.085,8.374c-0.113,0.178-0.227,0.357-0.34,0.535
				c-0.463-0.224-0.952-0.431-0.583-1.128C40.471,7.977,40.778,8.175,41.085,8.374z"/>
			<path fill-rule="evenodd" clip-rule="evenodd" fill="#A6438E" d="M36.166,23.117c0.23,0.055,0.535,0.201,0.679-0.028
				c1.204-1.89,2.996-2.929,4.98-3.563c1.509-0.48,2.444-1.559,3.324-2.756c0.743-1.009,1.538-1.947,2.652-2.521
				c0.433-0.222,0.667-0.551,0.711-1.013c0.022-0.246-0.12-0.647-0.323-0.523c-0.954,0.58-1.84-0.741-2.851,0.112
				c-0.445,0.375-1.153,0.043-1.7-0.25c-1.029-0.552-2.111-0.804-3.286-0.355c-0.172,0.067-0.387,0.19-0.521,0.138
				c-0.523-0.211-1.345-0.053-1.493-0.73c-0.161-0.733,0.631-0.755,1.081-1.027c1.279-0.769,2.768-0.86,4.084-1.5
				c1.427-0.579,2.368,0.35,3.332,1.081c0.611,0.464,1.077,1.121,1.769,1.495c1.201,0.846,1.583,2.38,2.635,3.352
				c0.079,0.166,0.09,0.34,0.049,0.522c-0.142,0.347-0.477,0.618-0.553,0.961c-0.153,0.69-1.346,1.303-0.238,2.112
				c1.164,0.849,1.972,0.375,2.639-0.765c0.39-0.068,0.692,0.084,0.951,0.356c0.226,0.314,0.255,0.668,0.165,1.046
				c-0.32,1.129-1.014,1.941-1.965,2.611c-0.89,0.626-1.916,1.159-2.271,2.352c-0.035,0.114-0.137,0.283-0.221,0.284
				c-2.583-0.009-2.747,2.475-3.454,3.979c-0.861,1.835-2.147,2.738-3.723,3.544c-0.179,0.027-0.346-0.004-0.502-0.088
				c-0.97-1.716-0.861-3.083,0.373-4.665c0.12-0.117,0.253-0.224,0.386-0.326c0.599-0.433,0.249-1.037,0.314-1.567
				c0.251-1.84,0.526-3.675,1.648-5.319c-0.488,0.572-1.145,0.729-1.782,0.916c-2.574,0.75-4.833,1.967-6.203,4.512
				c-0.205,0.379-0.588,0.407-0.947,0.459c-0.894-0.646-1.789-1.281-2.269-2.362c-0.532-1.196-1.722-1.497-2.773-1.973
				c0-0.34-0.211-0.521-0.467-0.668c0.524-0.35,0.881-0.835,1.147-1.408c0.323-0.695,0.784-1.248,1.558-1.431
				c0.333-0.046,0.535-0.271,0.709-0.542c0.431-0.676,1.023-0.387,1.453-0.169c0.46,0.235,0.25,0.755,0.038,1.153
				c-0.292,0.539-0.386,1.056-0.002,1.562c0.33,0.854-0.046,1.632-0.326,2.418c-0.126,0.346-0.375,0.797-0.054,1.023
				C35.392,23.885,35.669,23.029,36.166,23.117z"/>
			<path fill-rule="evenodd" clip-rule="evenodd" fill="#AD4991" d="M54.023,19.276c0.008-0.278,0.015-0.555,0.021-0.833
				c1.584-0.95,0.785-2.307,0.578-3.456c-0.353-1.975,0.56-3.09,2.677-3.015c0.107,1.185,0.858,1.703,1.721,2.433
				c1.872,1.585,4.588,2.222,5.555,4.87l0.001,0c-0.022,0.396,0.223,0.833-0.203,1.17c-0.363,0.55-0.364,1.171-0.401,1.789
				c-0.063,1.036-0.575,1.637-1.551,2.065c-1.23,0.54-2.639,0.184-3.787,1.048c-0.161,0.12-0.438-0.1-0.595-0.299
				c-0.707-0.91-1.446-1.832-0.904-3.135c0.332-0.797-0.18-0.81-0.652-0.876c-0.577-0.081-0.755,0.302-0.727,0.795
				c0.021,0.363,0.188,0.719,0.181,1.08c-0.013,0.593-0.412,0.478-0.769,0.372c-0.317-0.124-0.531-0.36-0.687-0.659
				C54.172,21.539,54.182,20.392,54.023,19.276z"/>
			<path fill-rule="evenodd" clip-rule="evenodd" fill="#AA438E" d="M35.904,25.95c0.226-0.208,0.563-0.375,0.663-0.631
				c0.916-2.359,2.815-3.458,4.98-4.226c0.734-0.261,1.406-0.669,2.216-0.762c0.692-0.081,1.031-0.704,0.937-1.604
				c0.634,0.543,0.866,1.17,0.551,1.596c-1.188,1.597-1.137,3.572-1.865,5.296c-0.046,0.52,0.352,1.14-0.38,1.502
				c-1.51,0.828-1.479,2.645-2.417,3.839c-0.199-0.127-0.495-0.204-0.584-0.391C39.071,28.618,37.081,27.667,35.904,25.95z"/>
			<path fill-rule="evenodd" clip-rule="evenodd" fill="#A7438E" d="M42.186,31.787c-0.271,0.002-0.542,0.004-0.813,0.006
				c-0.343-0.195-0.755-0.323-0.784-0.832c-0.063-0.233-0.255-0.577-0.167-0.683c0.86-1.053,1.024-2.708,2.584-3.156
				C41.709,28.525,41.687,30.118,42.186,31.787z"/>
			<path fill-rule="evenodd" clip-rule="evenodd" fill="#AA438E" d="M64.373,20.446c0.039-0.395-0.012-0.8,0.203-1.17
				c0.329,0.409,0.368,0.853,0.114,1.336C64.583,20.556,64.479,20.5,64.373,20.446z"/>
			<path fill-rule="evenodd" clip-rule="evenodd" fill="#7B788E" d="M30.901,16.091c0.213-0.541,0.341-1.107-0.017-1.587
				c-0.346-0.463-0.84-0.268-1.329-0.167c-0.52,0.107-0.741-0.307-0.852-0.744c-0.197-0.79-0.23-1.57,0.279-2.289
				c0.362,0.098,0.261,0.39,0.333,0.589c0.088,0.24,0.22,0.477,0.492,0.412c0.361-0.084,0.426-0.425,0.397-0.742
				c-0.018-0.174-0.13-0.333-0.203-0.499c-0.294-0.676,0.227-1.53,0.926-1.429c0.739,0.109,1.489,0.841,2.124-0.255
				c1.08,1.182,2.372-0.791,3.477,0.113c0.058,0.762-0.772,0.398-1.023,0.897c0.577,0.311,1.039,0.187,1.396-0.363
				c0.272-0.42,0.576-0.645,1.056-0.433c-0.233,0.446-0.464,0.893-0.697,1.339c-0.839,1.08-1.806,2.018-2.919,2.795
				c-1.154,0.174-2.312,0.408-3.456,0.013c-0.23-0.037-0.002,0.342-0.024,0.095c-0.005-0.061,0.046-0.067,0.161-0.033
				c0.443,0.136,0.928,0.202,1.156,0.701c0.13,0.463,0.039,0.909-0.147,1.347C31.706,16.244,31.365,16.54,30.901,16.091z"/>
			<path fill-rule="evenodd" clip-rule="evenodd" fill="#925899" d="M30.901,16.091c0.369,0.047,0.692-0.063,0.973-0.324
				c0.062-0.463,0.439-0.713,0.685-1.052c0.498-0.476,0.991-0.96,1.685-1.113c1.005-0.889,2.011-1.778,3.017-2.667
				c-0.322,0.756-0.778,1.407-1.399,1.949c-0.611,0.533-1.144,1.151-1.434,1.923c-0.45,1.192-1.29,2.015-2.421,2.384
				c-1,0.327-1.453,1.064-1.882,1.903c-0.692-0.73-0.954-1.651-1.04-2.649C29.617,15.829,30.328,16.422,30.901,16.091z"/>
			<path fill-rule="evenodd" clip-rule="evenodd" fill="#7B788E" d="M36.665,8.756c0.035-0.035,0.087-0.103,0.103-0.095
				c0.045,0.023,0.076,0.074,0.113,0.113c-0.036,0.034-0.089,0.104-0.104,0.095C36.733,8.847,36.702,8.796,36.665,8.756z"/>
			<path fill-rule="evenodd" clip-rule="evenodd" fill="#98448F" d="M52.612,3.612c0.097,0.065,0.197,0.125,0.292,0.193
				c0.282,0.209,0.641,0.474,0.282,0.828c-0.214,0.209-0.551-0.077-0.746-0.294c-0.111-0.123-0.145-0.318-0.212-0.481
				C52.354,3.776,52.482,3.694,52.612,3.612z"/>
			<path fill-rule="evenodd" clip-rule="evenodd" fill="#AD4991" d="M48.43,12.098c-0.614-0.248-1.096-0.669-1.508-1.182
				c-0.879-1.098-2.114-1.523-3.418-1.817c-0.107-0.06-0.213-0.119-0.32-0.18c1.292-1.099,2.862-1.608,4.395-2.072
				c0.911-0.275,1.866-0.472,2.792-0.756c0.348-0.106,0.878-0.394,1.02-0.26c0.984,0.923,1.765,0,2.461-0.423
				c0.937-0.574,1.745-0.55,2.628-0.147c0.045,0.117,0.104,0.272,0.038,0.354c-0.759,0.959-1.188,1.87-0.027,2.809
				c0.246,0.198,0.163,0.692-0.068,1.038c-1.458,0.625-2.907,1.012-4.529,1.088C50.759,10.602,49.365,11.028,48.43,12.098z"/>
			<path fill-rule="evenodd" clip-rule="evenodd" fill="#AD438F" d="M56.324,9.431c-0.025-0.771-0.104-1.409-1.084-1.573
				c-0.653-0.109-0.718-0.743-0.206-1.23c0.479-0.457,1.215-0.625,1.446-1.367c0.352-0.561-0.004-1.122,0.065-1.683
				C56.381,3.18,56.096,2.847,55.98,2.42c0.001-0.267,0.003-0.536,0.005-0.805c0.279-0.102,0.521-0.022,0.753,0.125
				c0.472,0.387,0.984,0.744,1.126,1.413c0.084,0.494,0,0.987-0.089,1.479c-0.779,4.28,1.43,9.126,5.059,11.121
				c0.335,0.183,0.704,0.116,1.053,0.186c0.661,1.003,0.374,2.247,0.688,3.337c-1.075-1.112-2.177-2.178-3.638-2.785
				c-0.361-0.151-0.632-0.522-0.926-0.812c-0.545-0.538-1.043-1.022-1.9-1.176c-1.283-0.232-1.354-0.574-1-2.035
				c0.04-0.163-0.04-0.355-0.064-0.533C56.403,11.236,55.7,10.558,56.324,9.431z"/>
			<path fill-rule="evenodd" clip-rule="evenodd" fill="#A2418D" d="M55.98,2.42c0.427,0.256,0.616,0.642,0.564,1.157
				C56.09,3.337,55.866,2.971,55.98,2.42z"/>
			<path fill-rule="evenodd" clip-rule="evenodd" fill="#9C4B92" d="M34.406,22.612c0.541-0.751,0.437-1.72,0.891-2.501
				c0.415-1.418,1.369-2.584,1.853-3.994c0.306-0.891,0.992-1.729,1.683-2.401c0.566-0.548,1.443-0.875,2.179-0.359
				c0.669,0.472,1.416,0.363,2.053,0.226c1.016-0.22,1.626-0.099,2.295,0.788c0.255,0.338,0.488,0.374,0.242,0.81
				c-0.19,0.336-0.468,0.57-0.75,0.817c-1.646,1.451-3.315,2.877-5.264,3.864c-1.233,0.625-2.262,1.453-3.073,2.587
				C35.821,22.766,35.16,23.937,34.406,22.612z"/>
			<path fill-rule="evenodd" clip-rule="evenodd" fill="#9F428E" d="M34.406,22.612c0.729,0.687,1.401-0.233,2.109-0.164
				c-0.116,0.222-0.232,0.445-0.349,0.668c-0.069,0.102-0.124,0.273-0.211,0.297c-0.577,0.15-0.275,1.351-1.024,1.066
				C34.162,24.187,34.088,23.401,34.406,22.612z"/>
			<path fill-rule="evenodd" clip-rule="evenodd" fill="#AC4790" d="M60.936,7.598c-0.019,0.907,0.439,1.705,0.448,2.623
				c0.006,0.674,0.492,1.169,1.031,1.546c0.433,0.824,0.705,1.733,1.286,2.484c0.362,0.466,0.495,1.068,0.186,1.688
				c-0.558,0.719-1.074,1.047-1.633,0.03c-0.424-0.769-1.342-0.929-1.953-1.577c-1.177-1.258-1.998-2.624-2.363-4.303
				c-0.11-0.51-0.368-0.892-0.626-1.293c-0.596-0.927-0.656-1.946-0.291-2.985c0.292-0.836,0.441-1.679,0.503-2.545
				c0.896-0.214,1.525,0.118,1.909,0.937c-0.162,0.725-1.165,0.898-1.131,1.763c0.027,0.672-0.617,1.454,0.193,1.991
				c0.81,0.538,1.448,0.088,2.026-0.542C60.704,7.376,60.841,7.442,60.936,7.598z"/>
			<path fill-rule="evenodd" clip-rule="evenodd" fill="#AD4D93" d="M56.324,9.431c-0.171,0.974,0.802,1.561,0.722,2.504
				c-0.442,0.214-0.91,0.383-1.318,0.655c-0.83,0.549-1.003,1.372-0.433,2.271c0.233,0.364,0.263,0.659,0.084,1.016
				c-0.21,0.418-0.212,0.778-0.029,1.226c0.499,1.237,0.418,1.326-0.965,1.448c-0.11,0.011-0.225-0.069-0.34-0.107
				c-0.315-0.167-0.633-0.333-0.949-0.499c-0.018-0.176,0.021-0.335,0.124-0.482c0.88-1.76,0.803-2.175-0.533-2.887
				c-0.542,0.098-0.902,0.622-1.451,0.694c-0.76-0.335-1.367-0.761-1.637-1.67c-0.18-0.597-0.606-1.145-1.169-1.501
				c0.061-0.427-0.463-0.541-0.454-0.938c0.258-0.261,0.55-0.225,0.84-0.137c0.429,0.132,0.829-0.115,1.236-0.139
				c0.823-0.048,0.731-1.653,1.577-1.162c0.637,0.37,1.19,0.272,1.803,0.326c0.455,0.041,0.811-0.096,1.187-0.342
				C55.146,9.361,55.708,9.127,56.324,9.431z"/>
			<path fill-rule="evenodd" clip-rule="evenodd" fill="#9E428E" d="M53.246,17.615c-0.052,0.109-0.102,0.218-0.15,0.33
				c-0.024,0.448,0.535,1.215-0.039,1.265c-0.778,0.067-1.594,0.99-2.306,0.248c-0.417-0.437-0.808-0.729-1.457-0.665
				c0.629-1.139,0.478-2.574,1.783-3.194c0.148-0.063,0.279-0.037,0.398,0.063c0.143,0.169,0.251,0.362,0.37,0.546
				c0.185,0.232,0.422,0.4,0.675,0.549c0.136,0.074,0.262,0.16,0.384,0.255C53.087,17.173,53.225,17.358,53.246,17.615z"/>
			<path fill-rule="evenodd" clip-rule="evenodd" fill="#AE5496" d="M51.391,15.764l-0.157-0.081L51.078,15.6
				c0.053-0.11,0.105-0.219,0.158-0.331c0.273-0.584,0.628-1.05,1.339-1.001c0.021,0.086,0.042,0.174,0.063,0.26
				C52.511,15.247,52.084,15.648,51.391,15.764z"/>
			<path fill-rule="evenodd" clip-rule="evenodd" fill="#A7438E" d="M43.006,27.122c0.126-0.502,0.253-1.002,0.38-1.502
				c0.131,0.328,0.325,0.642,0.379,0.987C43.872,27.29,43.472,27.286,43.006,27.122z"/>
			<path fill-rule="evenodd" clip-rule="evenodd" fill="#868399" d="M34.244,13.602c-0.434,0.536-0.855,1.084-1.522,1.336
				c-0.33,0.115-0.429-0.209-0.631-0.335c-0.628-0.329-1.255-0.657-1.883-0.985C31.568,13.804,32.94,13.032,34.244,13.602z"/>
			<path fill-rule="evenodd" clip-rule="evenodd" fill="#706D83" d="M32.091,14.604c0.402-0.252,0.436,0.195,0.631,0.335
				c-0.18,0.387-0.528,0.591-0.848,0.829C31.641,15.33,31.913,14.974,32.091,14.604z"/>
			<path fill-rule="evenodd" clip-rule="evenodd" fill="#9F448F" d="M61.393-0.25c0.049,0.168,0.097,0.333,0.144,0.5
				C61.489,0.084,61.441-0.082,61.393-0.25z"/>
			<path fill-rule="evenodd" clip-rule="evenodd" fill="#995396" d="M36.845,17.941c1.293-2.504,3.306-3.271,5.8-2.681
				c-1.323,2.298-3.355,3.929-5.567,5.361c-0.255-1.34,1.016-1.772,1.563-2.65C38.042,17.858,37.41,18.479,36.845,17.941z"/>
			<path fill-rule="evenodd" clip-rule="evenodd" fill="#807291" d="M36.845,17.941c0.869-0.233,1.738-0.465,2.879-0.772
				c-0.683,1.545-2.188,2.105-2.646,3.453c-0.425,0.618-1.032,0.979-1.771,1.459C35.368,20.403,36.2,19.206,36.845,17.941z"/>
			<path fill-rule="evenodd" clip-rule="evenodd" fill="#AE5396" d="M59.271,4.583c0.275,1.04,0.636,2.038,1.345,2.853
				c-0.294,0.439,0.021,1.208-0.693,1.396c-0.843,0.223-1.414-0.516-2.165-0.669c-0.234-0.048-0.106-0.412-0.094-0.65
				c0.049-0.86,0.218-1.693,0.42-2.537C58.318,3.999,58.788,4.389,59.271,4.583z"/>
			<path fill-rule="evenodd" clip-rule="evenodd" fill="#AE5496" d="M53.246,17.615c-0.203-0.12-0.407-0.238-0.612-0.355
				c-0.172-0.985,0.511-2.021-0.057-2.984l-0.002-0.007c0.24-0.327,0.47-0.56,0.867-0.202c0.825,0.744,1.102,2.522,0.474,3.518
				C53.777,17.805,53.474,17.684,53.246,17.615z"/>
			<path fill-rule="evenodd" clip-rule="evenodd" fill="#B1619D" d="M52.577,14.275c0.961,0.417,1.12,1.095,0.568,2.018
				c-0.187,0.313-0.342,0.644-0.511,0.966c-0.106-0.063-0.213-0.124-0.32-0.184c-0.115-0.414-0.678-0.368-0.781-0.795
				c-0.048-0.172-0.095-0.344-0.142-0.517C51.719,15.213,52.354,14.916,52.577,14.275z"/>
			<path fill-rule="evenodd" clip-rule="evenodd" fill="#AE5496" d="M51.533,16.281c0.336,0.187,0.737,0.308,0.781,0.795
				C51.959,16.908,51.559,16.789,51.533,16.281z"/>
		</g>
		<g>
			<text transform="matrix(1 0 0 1 4.1978 19.625)" fill="#FFFFFF" font-family="'Quicksand-Bold'" font-size="12">Web</text>
		</g>
		<g>
			<text transform="matrix(1 0 0 1 32.2266 23.2295)" fill="#FFFFFF" font-family="'Selima'" font-size="28">Arts</text>
		</g>
	</g>
</g>
</svg>
