<?xml version="1.0" encoding="utf-8"?>
<!-- Generator: Adobe Illustrator 16.0.0, SVG Export Plug-In . SVG Version: 6.00 Build 0)  -->
<!DOCTYPE svg PUBLIC "-//W3C//DTD SVG 1.1//EN" "http://www.w3.org/Graphics/SVG/1.1/DTD/svg11.dtd">
<svg version="1.1" xmlns="http://www.w3.org/2000/svg" xmlns:xlink="http://www.w3.org/1999/xlink" x="0px" y="0px" width="71px"
	 height="167px" viewBox="0 0 71 167" enable-background="new 0 0 71 167" xml:space="preserve">
<g id="BACKGROUND">
</g>
<g id="OBJECTS">
	<g id="XMLID_377_">
		<g id="XMLID_393_">
			<g id="XMLID_446_">
				<g id="XMLID_448_">
					<linearGradient id="XMLID_358_" gradientUnits="userSpaceOnUse" x1="7.8213" y1="81.126" x2="18.5928" y2="81.126">
						<stop  offset="0" style="stop-color:#FFFFFF"/>
						<stop  offset="0.9372" style="stop-color:#D8C3DD"/>
						<stop  offset="1" style="stop-color:#FCFAFC"/>
					</linearGradient>
					<path id="XMLID_455_" fill="url(#XMLID_358_)" d="M18.593,60.277v65.08H7.821v-65.08c0-7.678,1.278-15.171,3.697-21.157
						c0.051-0.13,0.105-0.261,0.157-0.392c0.38-0.919,0.896-1.551,1.469-1.809c0.021-0.009,0.043-0.018,0.064-0.024
						c0.021,0.006,0.039,0.015,0.061,0.024c0.57,0.258,1.09,0.889,1.466,1.809c0.055,0.131,0.109,0.261,0.161,0.392
						C17.312,45.105,18.593,52.599,18.593,60.277z"/>
					<g id="XMLID_452_">
						<path id="XMLID_454_" fill="#DBC8E0" d="M18.387,57.901H7.917c-0.329,0-0.595-0.267-0.595-0.595l0,0
							c0-0.329,0.266-0.595,0.595-0.595h10.47c0.328,0,0.595,0.267,0.595,0.595l0,0C18.981,57.635,18.715,57.901,18.387,57.901z"/>
						<path id="XMLID_453_" fill="#DBC8E0" d="M18.387,59.646H7.917c-0.329,0-0.595-0.267-0.595-0.595l0,0
							c0-0.329,0.266-0.595,0.595-0.595h10.47c0.328,0,0.595,0.266,0.595,0.595l0,0C18.981,59.38,18.715,59.646,18.387,59.646z"/>
					</g>
					<g id="XMLID_449_">
						<path id="XMLID_451_" fill="#DBC8E0" d="M18.387,98.064H7.917c-0.329,0-0.595-0.266-0.595-0.595l0,0
							c0-0.329,0.266-0.595,0.595-0.595h10.47c0.328,0,0.595,0.266,0.595,0.595l0,0C18.981,97.798,18.715,98.064,18.387,98.064z"/>
						<path id="XMLID_450_" fill="#DBC8E0" d="M18.387,99.809H7.917c-0.329,0-0.595-0.266-0.595-0.595l0,0
							c0-0.329,0.266-0.595,0.595-0.595h10.47c0.328,0,0.595,0.267,0.595,0.595l0,0C18.981,99.543,18.715,99.809,18.387,99.809z"/>
					</g>
				</g>
				<linearGradient id="XMLID_363_" gradientUnits="userSpaceOnUse" x1="7.8213" y1="108.9385" x2="18.5928" y2="108.9385">
					<stop  offset="0" style="stop-color:#FFFFFF"/>
					<stop  offset="0.9372" style="stop-color:#D8C3DD"/>
					<stop  offset="1" style="stop-color:#FCFAFC"/>
				</linearGradient>
				<path id="XMLID_447_" fill="url(#XMLID_363_)" d="M18.593,96.357v25.163H7.821v-17.46c1.873-2.155,4.285-4.091,7.402-5.502
					C16.475,97.99,17.594,97.246,18.593,96.357z"/>
			</g>
			<linearGradient id="XMLID_371_" gradientUnits="userSpaceOnUse" x1="20.4834" y1="64.2832" x2="51.085" y2="64.2832">
				<stop  offset="0" style="stop-color:#FFFFFF"/>
				<stop  offset="0.9372" style="stop-color:#C6A3CF"/>
				<stop  offset="1" style="stop-color:#EED6EE"/>
			</linearGradient>
			<path id="XMLID_445_" fill="url(#XMLID_371_)" d="M51.085,35.269v91.374H20.483V35.269c0-10.959,3.636-21.652,10.501-30.195
				c0.151-0.186,0.301-0.371,0.455-0.559c1.071-1.311,2.544-2.213,4.167-2.58c0.058-0.015,0.298-0.015,0.355,0
				c1.624,0.367,3.096,1.269,4.167,2.58c0.154,0.188,0.304,0.373,0.455,0.559C47.449,13.617,51.085,24.31,51.085,35.269z"/>
			<linearGradient id="XMLID_373_" gradientUnits="userSpaceOnUse" x1="20.4834" y1="89.3257" x2="34.7393" y2="89.3257">
				<stop  offset="0" style="stop-color:#FFFFFF"/>
				<stop  offset="0.9372" style="stop-color:#D8C3DD"/>
				<stop  offset="1" style="stop-color:#FCFAFC"/>
			</linearGradient>
			<path id="XMLID_444_" fill="url(#XMLID_373_)" d="M34.308,50.503l0.432,77.646H20.483v-60.32
				C25.601,56.423,34.308,50.503,34.308,50.503z"/>
			<g id="XMLID_438_">
				<g id="XMLID_440_">
					<linearGradient id="XMLID_456_" gradientUnits="userSpaceOnUse" x1="7.8945" y1="131.1694" x2="18.5166" y2="131.1694">
						<stop  offset="0" style="stop-color:#FFFFFF"/>
						<stop  offset="1" style="stop-color:#D8C3DD"/>
					</linearGradient>
					<rect id="XMLID_443_" x="7.895" y="127.629" fill="url(#XMLID_456_)" width="10.622" height="7.081"/>
					<rect id="XMLID_442_" x="7.673" y="131.765" fill="#DBC7E0" width="11.068" height="1.618"/>
					<rect id="XMLID_441_" x="7.673" y="128.881" fill="#DBC7E0" width="11.068" height="1.619"/>
				</g>
				<linearGradient id="XMLID_457_" gradientUnits="userSpaceOnUse" x1="7.8945" y1="130.8828" x2="18.5166" y2="130.8828">
					<stop  offset="0" style="stop-color:#FFFFFF"/>
					<stop  offset="0.9372" style="stop-color:#D8C3DD"/>
					<stop  offset="1" style="stop-color:#FCFAFC"/>
				</linearGradient>
				<polygon id="XMLID_439_" fill="url(#XMLID_457_)" points="18.517,127.629 7.895,134.137 7.895,127.629 				"/>
			</g>
			<g id="XMLID_420_">
				<g id="XMLID_427_">
					<g id="XMLID_429_">
						
							<linearGradient id="XMLID_458_" gradientUnits="userSpaceOnUse" x1="1790.876" y1="81.126" x2="1801.6465" y2="81.126" gradientTransform="matrix(-1 0 0 1 1855.084 0)">
							<stop  offset="0" style="stop-color:#FFFFFF"/>
							<stop  offset="0.9372" style="stop-color:#D8C3DD"/>
							<stop  offset="1" style="stop-color:#FCFAFC"/>
						</linearGradient>
						<path id="XMLID_437_" fill="url(#XMLID_458_)" d="M53.438,60.277v65.08h10.771v-65.08c0-7.678-1.277-15.171-3.696-21.157
							c-0.052-0.13-0.106-0.261-0.158-0.392c-0.379-0.919-0.895-1.551-1.469-1.809c-0.021-0.009-0.042-0.018-0.063-0.024
							c-0.021,0.006-0.039,0.015-0.061,0.024c-0.57,0.258-1.09,0.889-1.466,1.809c-0.055,0.131-0.109,0.261-0.161,0.392
							C54.718,45.105,53.438,52.599,53.438,60.277z"/>
						<g id="XMLID_434_">
							<path id="XMLID_436_" fill="#DBC8E0" d="M53.644,57.901h10.47c0.328,0,0.595-0.267,0.595-0.595l0,0
								c0-0.329-0.267-0.595-0.595-0.595h-10.47c-0.328,0-0.595,0.267-0.595,0.595l0,0C53.049,57.635,53.315,57.901,53.644,57.901z"
								/>
							<path id="XMLID_435_" fill="#DBC8E0" d="M53.644,59.646h10.47c0.328,0,0.595-0.267,0.595-0.595l0,0
								c0-0.329-0.267-0.595-0.595-0.595h-10.47c-0.328,0-0.595,0.266-0.595,0.595l0,0C53.049,59.38,53.315,59.646,53.644,59.646z"
								/>
						</g>
						<g id="XMLID_431_">
							<path id="XMLID_433_" fill="#DBC8E0" d="M53.644,98.064h10.47c0.328,0,0.595-0.266,0.595-0.595l0,0
								c0-0.329-0.267-0.595-0.595-0.595h-10.47c-0.328,0-0.595,0.266-0.595,0.595l0,0C53.049,97.798,53.315,98.064,53.644,98.064z"
								/>
							<path id="XMLID_432_" fill="#DBC8E0" d="M53.644,99.809h10.47c0.328,0,0.595-0.266,0.595-0.595l0,0
								c0-0.329-0.267-0.595-0.595-0.595h-10.47c-0.328,0-0.595,0.267-0.595,0.595l0,0C53.049,99.543,53.315,99.809,53.644,99.809z"
								/>
						</g>
					</g>
					
						<linearGradient id="XMLID_459_" gradientUnits="userSpaceOnUse" x1="1790.876" y1="108.9385" x2="1801.6465" y2="108.9385" gradientTransform="matrix(-1 0 0 1 1855.084 0)">
						<stop  offset="0" style="stop-color:#FFFFFF"/>
						<stop  offset="0.9372" style="stop-color:#D8C3DD"/>
						<stop  offset="1" style="stop-color:#FCFAFC"/>
					</linearGradient>
					<path id="XMLID_428_" fill="url(#XMLID_459_)" d="M53.438,96.357v25.163h10.771v-17.46c-1.872-2.155-4.285-4.091-7.402-5.502
						C55.556,97.99,54.436,97.246,53.438,96.357z"/>
				</g>
				<g id="XMLID_421_">
					<g id="XMLID_423_">
						
							<linearGradient id="XMLID_460_" gradientUnits="userSpaceOnUse" x1="1790.9482" y1="131.1694" x2="1801.5713" y2="131.1694" gradientTransform="matrix(-1 0 0 1 1855.084 0)">
							<stop  offset="0" style="stop-color:#FFFFFF"/>
							<stop  offset="1" style="stop-color:#D8C3DD"/>
						</linearGradient>
						<rect id="XMLID_426_" x="53.513" y="127.629" fill="url(#XMLID_460_)" width="10.623" height="7.081"/>
						<rect id="XMLID_425_" x="53.289" y="131.765" fill="#DBC7E0" width="11.068" height="1.618"/>
						<rect id="XMLID_424_" x="53.289" y="128.881" fill="#DBC7E0" width="11.068" height="1.619"/>
					</g>
					
						<linearGradient id="XMLID_461_" gradientUnits="userSpaceOnUse" x1="1790.9482" y1="130.8828" x2="1801.5713" y2="130.8828" gradientTransform="matrix(-1 0 0 1 1855.084 0)">
						<stop  offset="0" style="stop-color:#FFFFFF"/>
						<stop  offset="0.9372" style="stop-color:#D8C3DD"/>
						<stop  offset="1" style="stop-color:#FCFAFC"/>
					</linearGradient>
					<polygon id="XMLID_422_" fill="url(#XMLID_461_)" points="53.513,127.629 64.136,134.137 64.136,127.629 					"/>
				</g>
			</g>
			<path id="XMLID_419_" fill="#DAC6DF" d="M26.645,69.08c0,0,2.438,28.263-11.422,34.535
				c-13.859,6.272-13.859,22.965-13.859,22.965h34.093V78.93L26.645,69.08z"/>
			<path id="XMLID_418_" fill="#DAC6DF" d="M44.096,69.333c0,0-2.226,28.01,11.634,34.282c13.859,6.272,13.859,22.965,13.859,22.965
				H35.496V78.93L44.096,69.333z"/>
			<linearGradient id="XMLID_462_" gradientUnits="userSpaceOnUse" x1="1.3633" y1="98.6011" x2="35.4551" y2="98.6011">
				<stop  offset="0" style="stop-color:#FFFFFF"/>
				<stop  offset="0.9372" style="stop-color:#D8C3DD"/>
				<stop  offset="1" style="stop-color:#FCFAFC"/>
			</linearGradient>
			<path id="XMLID_417_" fill="url(#XMLID_462_)" d="M35.455,80.372v47.649H1.363c0,0,0-16.692,13.86-22.965
				c1.396-0.631,2.629-1.5,3.715-2.553c5.745-5.551,7.451-16.197,7.885-23.967c0.301-5.363-0.003-9.354-0.003-9.354L35.455,80.372z"
				/>
			<linearGradient id="XMLID_463_" gradientUnits="userSpaceOnUse" x1="35.4961" y1="98.3223" x2="69.5889" y2="98.3223">
				<stop  offset="0.2301" style="stop-color:#D8C3DD"/>
				<stop  offset="1" style="stop-color:#FCFAFC"/>
			</linearGradient>
			<path id="XMLID_416_" fill="url(#XMLID_463_)" d="M43.969,68.624c0,0-2.099,30.16,11.761,36.432
				c13.859,6.272,13.859,22.964,13.859,22.964H35.496V80.372L43.969,68.624z"/>
			<linearGradient id="XMLID_464_" gradientUnits="userSpaceOnUse" x1="10.5439" y1="103.2417" x2="33.0176" y2="103.2417">
				<stop  offset="0" style="stop-color:#FFFFFF"/>
				<stop  offset="0.9372" style="stop-color:#D8C3DD"/>
				<stop  offset="1" style="stop-color:#FCFAFC"/>
			</linearGradient>
			<path id="XMLID_415_" fill="url(#XMLID_464_)" d="M33.018,78.866l-1.187,49.154H10.544l8.395-25.518
				c5.745-5.551,7.451-16.197,7.885-23.967l0.024-0.073L33.018,78.866z"/>
			<path id="XMLID_414_" fill="#F3ECF4" d="M44.333,70.531c0-0.682-0.059-1.362-0.175-2.034c-0.701-4.055-3.518-18.2-8.702-18.246
				h-0.025c-5.132,0.045-7.943,13.905-8.68,18.12c-0.133,0.756-0.197,1.521-0.197,2.29v55.464l8.89-0.404l8.89,0.404V70.531z"/>
			<linearGradient id="XMLID_465_" gradientUnits="userSpaceOnUse" x1="26.21" y1="88.5313" x2="43.9893" y2="88.5313">
				<stop  offset="0" style="stop-color:#FFFFFF"/>
				<stop  offset="0.7866" style="stop-color:#D8C3DD"/>
				<stop  offset="1" style="stop-color:#FCFAFC"/>
			</linearGradient>
			<path id="XMLID_413_" fill="url(#XMLID_465_)" d="M43.989,70.875c0-0.683-0.059-1.362-0.175-2.034
				c-0.701-4.055-3.518-18.2-8.702-18.247h-0.025c-5.132,0.046-7.943,13.905-8.68,18.12c-0.133,0.757-0.197,1.521-0.197,2.29v55.464
				l8.89-0.404l8.89,0.404V70.875z"/>
			<path id="XMLID_412_" fill="#D9C4DE" d="M39.265,66.323c-2.221-2.221-5.821-2.221-8.042,0c-0.537-0.537-1.073-1.073-1.61-1.609
				c3.11-3.11,8.152-3.11,11.262,0C40.338,65.25,39.802,65.786,39.265,66.323z"/>
			<linearGradient id="XMLID_466_" gradientUnits="userSpaceOnUse" x1="23.9004" y1="123.3301" x2="36.2412" y2="123.3301">
				<stop  offset="0" style="stop-color:#FFFFFF"/>
				<stop  offset="0.9372" style="stop-color:#D8C3DD"/>
			</linearGradient>
			<path id="XMLID_411_" fill="url(#XMLID_466_)" d="M36.241,114.327v18.006H23.9v-10.318c0-4.246,3.442-7.688,7.688-7.688H36.241z"
				/>
			<linearGradient id="XMLID_467_" gradientUnits="userSpaceOnUse" x1="35.127" y1="123.3296" x2="47.4697" y2="123.3296">
				<stop  offset="0" style="stop-color:#FCFAFC"/>
				<stop  offset="0.0628" style="stop-color:#D8C3DD"/>
				<stop  offset="1" style="stop-color:#FFFFFF"/>
			</linearGradient>
			<path id="XMLID_410_" fill="url(#XMLID_467_)" d="M35.127,132.333H47.47v-10.318c0-4.246-3.442-7.688-7.688-7.688h-4.654V132.333
				z"/>
			<linearGradient id="XMLID_468_" gradientUnits="userSpaceOnUse" x1="25.7041" y1="123.3301" x2="35.8711" y2="123.3301">
				<stop  offset="0" style="stop-color:#FFFFFF"/>
				<stop  offset="0.9372" style="stop-color:#D8C3DD"/>
				<stop  offset="1" style="stop-color:#FCFAFC"/>
			</linearGradient>
			<polygon id="XMLID_409_" fill="url(#XMLID_468_)" points="35.871,132.333 25.704,132.333 32.827,114.327 35.151,114.327 			"/>
			<g id="XMLID_402_">
				<circle id="XMLID_408_" fill="#DBC8E0" cx="24.368" cy="48.568" r="0.304"/>
				<circle id="XMLID_407_" fill="#DBC8E0" cx="24.368" cy="46.14" r="0.304"/>
				<circle id="XMLID_406_" fill="#DBC8E0" cx="24.368" cy="43.712" r="0.304"/>
				<circle id="XMLID_405_" fill="#DBC8E0" cx="24.368" cy="41.284" r="0.304"/>
				<circle id="XMLID_404_" fill="#DBC8E0" cx="24.368" cy="38.856" r="0.304"/>
				<circle id="XMLID_403_" fill="#DBC8E0" cx="24.368" cy="36.428" r="0.304"/>
			</g>
			<g id="XMLID_395_">
				<circle id="XMLID_401_" fill="#F1EAF3" cx="35.345" cy="84.33" r="0.304"/>
				<circle id="XMLID_400_" fill="#F1EAF3" cx="35.345" cy="81.902" r="0.304"/>
				<circle id="XMLID_399_" fill="#F1EAF3" cx="35.345" cy="79.475" r="0.304"/>
				<circle id="XMLID_398_" fill="#F1EAF3" cx="35.345" cy="77.046" r="0.304"/>
				<circle id="XMLID_397_" fill="#F1EAF3" cx="35.345" cy="74.618" r="0.304"/>
				<circle id="XMLID_396_" fill="#F1EAF3" cx="35.345" cy="72.19" r="0.304"/>
			</g>
			<linearGradient id="XMLID_469_" gradientUnits="userSpaceOnUse" x1="33.9033" y1="122.0527" x2="37.166" y2="122.0527">
				<stop  offset="0" style="stop-color:#FFFFFF"/>
				<stop  offset="0.8033" style="stop-color:#D8C3DD"/>
				<stop  offset="1" style="stop-color:#FCFAFC"/>
			</linearGradient>
			<path id="XMLID_394_" fill="url(#XMLID_469_)" d="M35.534,133.775L35.534,133.775c-0.9,0-1.631-0.73-1.631-1.632v-20.183
				c0-0.9,0.73-1.631,1.631-1.631l0,0c0.901,0,1.632,0.73,1.632,1.631v20.183C37.166,133.045,36.436,133.775,35.534,133.775z"/>
		</g>
		<g id="XMLID_380_">
			<g id="XMLID_390_">
				<linearGradient id="XMLID_470_" gradientUnits="userSpaceOnUse" x1="9.9336" y1="165.3354" x2="14.1825" y2="131.951">
					<stop  offset="0" style="stop-color:#FFFFFF"/>
					<stop  offset="0.7866" style="stop-color:#D8C3DD"/>
					<stop  offset="1" style="stop-color:#FCFAFC"/>
				</linearGradient>
				<path id="XMLID_392_" fill="url(#XMLID_470_)" d="M15.445,135.748v0.642c0,16.155-1.223,29.253-2.731,29.253
					s-2.731-13.098-2.731-29.253v-0.642H15.445z"/>
				<linearGradient id="XMLID_471_" gradientUnits="userSpaceOnUse" x1="11.415" y1="149.5654" x2="13.3994" y2="133.974">
					<stop  offset="0" style="stop-color:#FFFFFF"/>
					<stop  offset="0.7866" style="stop-color:#F9F6FA"/>
					<stop  offset="1" style="stop-color:#FCFAFC"/>
				</linearGradient>
				<path id="XMLID_391_" fill="url(#XMLID_471_)" d="M13.989,135.748v0.3c0,7.544-0.571,13.661-1.275,13.661
					s-1.275-6.117-1.275-13.661v-0.3H13.989z"/>
			</g>
			<g id="XMLID_382_">
				<linearGradient id="XMLID_472_" gradientUnits="userSpaceOnUse" x1="55.458" y1="165.3354" x2="59.7069" y2="131.951">
					<stop  offset="0" style="stop-color:#FFFFFF"/>
					<stop  offset="0.7866" style="stop-color:#D8C3DD"/>
					<stop  offset="1" style="stop-color:#FCFAFC"/>
				</linearGradient>
				<path id="XMLID_389_" fill="url(#XMLID_472_)" d="M60.97,135.748v0.642c0,16.155-1.223,29.253-2.731,29.253
					c-1.508,0-2.731-13.098-2.731-29.253v-0.642H60.97z"/>
				<linearGradient id="XMLID_473_" gradientUnits="userSpaceOnUse" x1="56.9395" y1="149.5654" x2="58.9238" y2="133.974">
					<stop  offset="0" style="stop-color:#FFFFFF"/>
					<stop  offset="0.7866" style="stop-color:#F9F6FA"/>
					<stop  offset="1" style="stop-color:#FCFAFC"/>
				</linearGradient>
				<path id="XMLID_384_" fill="url(#XMLID_473_)" d="M59.514,135.748v0.3c0,7.544-0.57,13.661-1.275,13.661
					c-0.704,0-1.275-6.117-1.275-13.661v-0.3H59.514z"/>
			</g>
		</g>
		<g id="XMLID_378_">
			<linearGradient id="XMLID_474_" gradientUnits="userSpaceOnUse" x1="33.3691" y1="159.1455" x2="36.6207" y2="133.5975">
				<stop  offset="0" style="stop-color:#FFFFFF"/>
				<stop  offset="0.7866" style="stop-color:#F9F6FA"/>
				<stop  offset="1" style="stop-color:#FCFAFC"/>
			</linearGradient>
			<path id="XMLID_379_" fill="url(#XMLID_474_)" d="M37.461,136.487v0.492c0,12.37-0.889,22.398-1.984,22.398
				s-1.984-10.028-1.984-22.398v-0.492H37.461z"/>
		</g>
	</g>
</g>
<g id="DESIGNED_BY_FREEPIK">
</g>
</svg>
